<svg width="80" height="80" viewBox="0 0 80 80" fill="none" xmlns="http://www.w3.org/2000/svg">
<g clip-path="url(#clip0)">
<path d="M68.2842 11.7157C60.7293 4.16076 50.6841 0 39.9999 0C29.3157 0 19.2706 4.16076 11.7157 11.7157C4.16076 19.2706 0 29.3157 0 39.9999C0 50.6847 4.16076 60.7293 11.7157 68.2842C19.2706 75.8391 29.3157 79.9998 39.9999 79.9998C49.3792 79.9998 58.4972 76.6881 65.6749 70.6737C66.1724 70.2568 66.2377 69.5159 65.8208 69.0184C65.4045 68.521 64.663 68.4551 64.1655 68.8719C60.0798 72.2954 55.3258 74.7868 50.2532 76.2224C52.7941 74.232 55.1244 71.4861 57.1441 68.0486C58.4813 65.7726 59.6355 63.2708 60.5962 60.5962C63.2708 59.6355 65.7726 58.4813 68.0486 57.1441C71.4958 55.1189 74.2479 52.7807 76.2395 50.2312C74.6269 55.96 71.6631 61.2596 67.5145 65.6993C67.0714 66.1736 67.0964 66.9176 67.5707 67.3607C68.0449 67.8038 68.7883 67.7782 69.2314 67.3046C76.1754 59.8729 79.9998 50.1763 79.9998 40.0005C79.9998 29.3157 75.8391 19.2706 68.2842 11.7157ZM66.6222 13.3777C71.2572 18.0127 74.5335 23.6438 76.2541 29.7882C74.2613 27.2314 71.5044 24.8864 68.0486 22.8558C65.775 21.5197 63.2756 20.3668 60.6035 19.4067C59.5165 16.3849 58.1817 13.584 56.6124 11.0748C56.2688 10.5243 55.5431 10.3576 54.9932 10.7019C54.4426 11.0461 54.276 11.7706 54.6203 12.3211C55.7836 14.1815 56.8163 16.2445 57.7092 18.4613C52.2716 16.8597 46.2432 16.0119 39.9999 16.0119C33.7548 16.0119 27.7252 16.8603 22.2869 18.4625C23.4912 15.4809 24.945 12.7881 26.6094 10.4956C30.4778 5.16723 35.1086 2.35046 39.9999 2.35046C44.2211 2.35046 48.3251 4.50378 51.8676 8.57725C52.2942 9.06676 53.0364 9.11864 53.5259 8.69261C54.0154 8.26659 54.0673 7.5244 53.6413 7.03429C52.5414 5.77025 51.3878 4.67101 50.1916 3.73962C56.3433 5.45897 61.9817 8.73778 66.6222 13.3777ZM17.3694 34.9346C16.7205 34.895 16.1651 35.3912 16.1273 36.0394C16.051 37.3467 16.0119 38.6791 16.0119 39.9999C16.0119 46.2493 16.8609 52.2826 18.4655 57.7239C16.5789 56.9591 14.7961 56.0894 13.1421 55.1177C6.18285 51.0283 2.35046 45.6597 2.35046 39.9999C2.35046 34.3401 6.18285 28.9715 13.1421 24.8822C14.8004 23.908 16.5881 23.0365 18.4808 22.2705C17.6379 25.122 16.9952 28.1433 16.5814 31.2664C16.4959 31.9103 16.9488 32.5005 17.5921 32.586C17.6446 32.5927 17.6965 32.5964 17.7478 32.5964C18.3282 32.5964 18.833 32.1667 18.9117 31.5753C19.3933 27.9425 20.1916 24.4592 21.264 21.2439C26.9061 19.3634 33.3178 18.3624 39.9999 18.3624C46.6796 18.3624 53.0883 19.3628 58.7285 21.2414C60.6115 26.9085 61.6375 33.3788 61.6375 39.9999C61.6375 46.6881 60.6347 53.1048 58.7511 58.7505C53.1054 60.634 46.6888 61.6368 39.9999 61.6368C33.3117 61.6368 26.8951 60.634 21.2493 58.7505C19.3658 53.1048 18.363 46.6881 18.363 39.9999C18.363 38.7243 18.4002 37.4377 18.4741 36.1761C18.5119 35.5285 18.0169 34.9725 17.3694 34.9346ZM13.3777 13.3777C18.0261 8.72923 23.6767 5.44677 29.8413 3.73046C28.0059 5.14831 26.2774 6.95189 24.7076 9.11497C22.6001 12.0184 20.8136 15.5127 19.4189 19.3988C16.7382 20.3607 14.2315 21.5161 11.9513 22.8558C8.49547 24.8864 5.73851 27.2314 3.74572 29.7882C5.4663 23.6438 8.74266 18.0127 13.3777 13.3777ZM13.3777 66.6222C8.74266 61.9872 5.4663 56.3561 3.74572 50.2117C5.73851 52.7685 8.49547 55.1134 11.9513 57.1441C14.2273 58.4813 16.7291 59.6355 19.4043 60.5962C20.365 63.2708 21.5185 65.7726 22.8558 68.0486C24.8864 71.5044 27.2314 74.2613 29.7882 76.2541C23.6438 74.5335 18.0127 71.2572 13.3777 66.6222ZM55.1177 66.8578C51.0283 73.817 45.6597 77.6494 39.9999 77.6494C34.3401 77.6494 28.9715 73.817 24.8822 66.8578C23.9105 65.2037 23.0407 63.4209 22.276 61.5343C27.7172 63.1383 33.7505 63.9873 39.9999 63.9873C46.2487 63.9873 52.2826 63.1383 57.7233 61.5337C56.9591 63.4209 56.0894 65.2037 55.1177 66.8578ZM66.8578 55.1177C65.2037 56.0894 63.4209 56.9591 61.5343 57.7233C63.1383 52.2826 63.9873 46.2487 63.9873 39.9999C63.9873 33.7274 63.1426 27.7056 61.5422 22.2796C63.4264 23.0438 65.2062 23.9117 66.8578 24.8822C73.817 28.9715 77.6494 34.3401 77.6494 39.9999C77.6494 45.6597 73.817 51.0283 66.8578 55.1177Z" fill="url(#paint0_linear)"/>
<path d="M24.757 46.1956C24.1082 46.1956 23.5815 46.7217 23.5815 47.3705C23.5815 48.0199 24.1082 48.5461 24.757 48.5461H30.2734C30.9222 48.5461 31.4483 48.0199 31.4483 47.3705V35.4498C31.4483 34.8004 30.9222 34.2742 30.2734 34.2742H24.757C24.1082 34.2742 23.5815 34.8004 23.5815 35.4498C23.5815 36.0986 24.1082 36.6247 24.757 36.6247H29.0978V40.2349H24.757C24.1082 40.2349 23.5815 40.761 23.5815 41.4104C23.5815 42.0593 24.1082 42.5854 24.757 42.5854H29.0978V46.1956H24.757Z" fill="url(#paint1_linear)"/>
<path d="M45.6682 48.5461H51.6289C52.2777 48.5461 52.8038 48.0199 52.8038 47.3705V35.4498C52.8038 34.8004 52.2777 34.2742 51.6289 34.2742H45.6682C45.0194 34.2742 44.4933 34.8004 44.4933 35.4498V47.3711C44.4933 48.0199 45.0194 48.5461 45.6682 48.5461ZM50.4534 41.4104V46.1956H46.8438V36.6247H50.4534V41.4104Z" fill="url(#paint2_linear)"/>
<path d="M35.1696 48.5461H41.1297C41.7791 48.5461 42.3052 48.0199 42.3052 47.3705V41.4104C42.3052 40.761 41.7791 40.2349 41.1297 40.2349H36.3445V36.6247H41.1297C41.7791 36.6247 42.3052 36.0986 42.3052 35.4498C42.3052 34.8004 41.7791 34.2742 41.1297 34.2742H35.1696C34.5202 34.2742 33.9941 34.8004 33.9941 35.4498V47.3711C33.9941 48.0199 34.5202 48.5461 35.1696 48.5461ZM36.3445 42.5854H39.9548V46.1956H36.3445V42.5854Z" fill="url(#paint3_linear)"/>
<path d="M54.818 32.8167C56.6021 32.8167 58.0541 31.3647 58.0541 29.5806C58.0541 27.796 56.6021 26.3439 54.818 26.3439C53.0334 26.3439 51.5813 27.796 51.5813 29.5806C51.5813 31.3647 53.0334 32.8167 54.818 32.8167ZM54.818 28.6944C55.3063 28.6944 55.7036 29.0917 55.7036 29.5806C55.7036 30.0689 55.3063 30.4663 54.818 30.4663C54.3297 30.4663 53.9318 30.0689 53.9318 29.5806C53.9318 29.0917 54.3297 28.6944 54.818 28.6944Z" fill="url(#paint4_linear)"/>
</g>
<defs>
<linearGradient id="paint0_linear" x1="39.9999" y1="0" x2="39.9999" y2="79.9998" gradientUnits="userSpaceOnUse">
<stop stop-color="#FFD600"/>
<stop offset="0.286458" stop-color="#FD6500"/>
</linearGradient>
<linearGradient id="paint1_linear" x1="27.5149" y1="34.2742" x2="27.5149" y2="48.5461" gradientUnits="userSpaceOnUse">
<stop stop-color="#FFD600"/>
<stop offset="0.286458" stop-color="#FD6500"/>
</linearGradient>
<linearGradient id="paint2_linear" x1="48.6486" y1="34.2742" x2="48.6486" y2="48.5461" gradientUnits="userSpaceOnUse">
<stop stop-color="#FFD600"/>
<stop offset="0.286458" stop-color="#FD6500"/>
</linearGradient>
<linearGradient id="paint3_linear" x1="38.1497" y1="34.2742" x2="38.1497" y2="48.5461" gradientUnits="userSpaceOnUse">
<stop stop-color="#FFD600"/>
<stop offset="0.286458" stop-color="#FD6500"/>
</linearGradient>
<linearGradient id="paint4_linear" x1="54.8177" y1="26.3439" x2="54.8177" y2="32.8167" gradientUnits="userSpaceOnUse">
<stop stop-color="#FFD600"/>
<stop offset="0.286458" stop-color="#FD6500"/>
</linearGradient>
<clipPath id="clip0">
<rect width="80" height="80" fill="white"/>
</clipPath>
</defs>
</svg>
