<svg width="80" height="80" viewBox="0 0 80 80" fill="none" xmlns="http://www.w3.org/2000/svg">
<path d="M75.1881 30.4443C74.9556 30.444 74.7293 30.3688 74.5429 30.2297C74.3566 30.0907 74.22 29.8952 74.1535 29.6724C73.8292 28.5989 73.48 27.5913 73.107 26.6789C72.9985 26.4134 72.9999 26.1157 73.1109 25.8512C73.2219 25.5867 73.4334 25.3772 73.6989 25.2686C73.9644 25.1601 74.2621 25.1615 74.5266 25.2725C74.7911 25.3835 75.0006 25.595 75.1092 25.8605C75.5081 26.8389 75.8832 27.9146 76.2248 29.053C76.3068 29.3276 76.2763 29.6236 76.14 29.8758C76.0038 30.128 75.773 30.3158 75.4984 30.3978C75.3978 30.4286 75.2932 30.4442 75.1881 30.4443Z" fill="url(#paint0_linear)"/>
<path d="M40 77.8378C33.9413 77.8368 27.9715 76.3809 22.5926 73.5926C17.2137 70.8043 12.583 66.7651 9.09002 61.8147C5.59701 56.8643 3.34383 51.1476 2.51998 45.1452C1.69612 39.1428 2.32569 33.0303 4.35572 27.3219C6.38575 21.6135 9.7569 16.476 14.1856 12.3415C18.6143 8.20707 23.9711 5.19655 29.8054 3.56316C35.6398 1.92977 41.781 1.72128 47.7127 2.95522C53.6443 4.18917 59.193 6.82946 63.8919 10.654C64.0019 10.7438 64.0932 10.8543 64.1605 10.9793C64.2278 11.1043 64.2698 11.2413 64.2842 11.3826C64.2986 11.5238 64.285 11.6665 64.2442 11.8025C64.2034 11.9385 64.1362 12.0651 64.0465 12.1751C63.9567 12.2852 63.8462 12.3764 63.7212 12.4437C63.5962 12.5111 63.4592 12.5531 63.3179 12.5675C63.1767 12.5818 63.034 12.5682 62.898 12.5274C62.762 12.4866 62.6354 12.4194 62.5254 12.3297C56.2462 7.2171 48.4145 4.39267 40.3175 4.3206C32.2205 4.24853 24.3398 6.93312 17.9706 11.9332C11.6014 16.9332 7.12258 23.9512 5.27027 31.8339C3.41797 39.7166 4.30234 47.9948 7.77805 55.3083C11.2538 62.6218 17.114 68.5353 24.3958 72.077C31.6775 75.6187 39.9474 76.5779 47.8465 74.797C55.7456 73.016 62.8039 68.6009 67.8613 62.2772C72.9187 55.9534 75.6745 48.0974 75.6757 40C75.6757 39.12 75.6443 38.2411 75.5816 37.387C75.5713 37.245 75.589 37.1024 75.6337 36.9673C75.6785 36.8322 75.7494 36.7072 75.8425 36.5995C75.9355 36.4917 76.0489 36.4034 76.1761 36.3395C76.3033 36.2756 76.4418 36.2374 76.5838 36.227C76.7257 36.2167 76.8684 36.2344 77.0035 36.2791C77.1386 36.3239 77.2636 36.3948 77.3713 36.4879C77.479 36.5809 77.5674 36.6943 77.6313 36.8215C77.6952 36.9487 77.7334 37.0872 77.7438 37.2292C77.8097 38.1351 77.8432 39.067 77.8432 40C77.8318 50.0326 73.8409 59.651 66.7462 66.7446C59.6516 73.8383 50.0326 77.8278 40 77.8378Z" fill="url(#paint1_linear)"/>
<path d="M70.5633 20.6486C70.3851 20.6489 70.2097 20.605 70.0526 20.5211C69.8955 20.4372 69.7616 20.3157 69.6627 20.1676C69.1222 19.3578 68.5297 18.5459 67.8486 17.7038C67.6692 17.4801 67.5859 17.1944 67.6171 16.9093C67.6483 16.6242 67.7915 16.3633 68.0151 16.1838C68.2388 16.0043 68.5246 15.921 68.8096 15.9522C69.0947 15.9834 69.3557 16.1266 69.5351 16.3503C70.2562 17.2486 70.8865 18.1049 71.4616 18.9676C71.5702 19.1303 71.6326 19.3194 71.6421 19.5148C71.6517 19.7102 71.608 19.9046 71.5158 20.0771C71.4236 20.2496 71.2863 20.3939 71.1186 20.4946C70.9508 20.5952 70.7589 20.6485 70.5633 20.6486Z" fill="url(#paint2_linear)"/>
<path d="M40 68.1081C34.4407 68.1081 29.0063 66.4596 24.3839 63.371C19.7616 60.2825 16.1589 55.8926 14.0315 50.7565C11.904 45.6204 11.3474 39.9688 12.4319 34.5164C13.5165 29.0639 16.1935 24.0556 20.1245 20.1246C24.0555 16.1936 29.0639 13.5165 34.5163 12.432C39.9688 11.3474 45.6204 11.9041 50.7565 14.0315C55.8926 16.1589 60.2824 19.7616 63.371 24.384C66.4596 29.0063 68.1081 34.4407 68.1081 40C68.0995 47.4521 65.1353 54.5965 59.8659 59.8659C54.5965 65.1354 47.4521 68.0995 40 68.1081ZM40 14.0541C34.8683 14.0541 29.852 15.5758 25.5852 18.4267C21.3184 21.2777 17.9928 25.3299 16.029 30.0709C14.0653 34.8119 13.5514 40.0288 14.5526 45.0618C15.5537 50.0948 18.0248 54.7179 21.6534 58.3465C25.282 61.9751 29.9051 64.4463 34.9382 65.4474C39.9712 66.4485 45.188 65.9347 49.929 63.9709C54.67 62.0071 58.7223 58.6816 61.5732 54.4148C64.4242 50.148 65.9459 45.1316 65.9459 40C65.9379 33.1212 63.2017 26.5264 58.3377 21.6623C53.4736 16.7982 46.8788 14.0621 40 14.0541Z" fill="url(#paint3_linear)"/>
<path d="M40 9.56323C39.7133 9.56323 39.4383 9.44933 39.2356 9.24659C39.0328 9.04385 38.9189 8.76887 38.9189 8.48215V7.43242C38.9189 7.1457 39.0328 6.87072 39.2356 6.66798C39.4383 6.46524 39.7133 6.35134 40 6.35134C40.2868 6.35134 40.5617 6.46524 40.7645 6.66798C40.9672 6.87072 41.0811 7.1457 41.0811 7.43242V8.48215C41.0811 8.76887 40.9672 9.04385 40.7645 9.24659C40.5617 9.44933 40.2868 9.56323 40 9.56323Z" fill="url(#paint4_linear)"/>
<path d="M40 73.6487C39.7133 73.6487 39.4383 73.5348 39.2356 73.332C39.0328 73.1293 38.9189 72.8543 38.9189 72.5676V71.5178C38.9189 71.2311 39.0328 70.9561 39.2356 70.7534C39.4383 70.5507 39.7133 70.4368 40 70.4368C40.2868 70.4368 40.5617 70.5507 40.7645 70.7534C40.9672 70.9561 41.0811 71.2311 41.0811 71.5178V72.5676C41.0811 72.8543 40.9672 73.1293 40.7645 73.332C40.5617 73.5348 40.2868 73.6487 40 73.6487Z" fill="url(#paint5_linear)"/>
<path d="M62.2865 18.7946C62.0727 18.7945 61.8637 18.7311 61.686 18.6123C61.5082 18.4935 61.3697 18.3247 61.2879 18.1272C61.2061 17.9297 61.1847 17.7123 61.2264 17.5027C61.2681 17.293 61.371 17.1004 61.5222 16.9492L62.2649 16.2065C62.4688 16.0096 62.7418 15.9006 63.0253 15.903C63.3087 15.9055 63.5799 16.0192 63.7803 16.2196C63.9808 16.4201 64.0945 16.6912 64.0969 16.9747C64.0994 17.2582 63.9904 17.5312 63.7935 17.7351L63.0508 18.4778C62.8481 18.6806 62.5732 18.7945 62.2865 18.7946Z" fill="url(#paint6_linear)"/>
<path d="M16.9729 64.1081C16.7592 64.1081 16.5502 64.0446 16.3724 63.9258C16.1947 63.807 16.0562 63.6382 15.9744 63.4407C15.8926 63.2432 15.8712 63.0259 15.9129 62.8162C15.9545 62.6065 16.0575 62.4139 16.2086 62.2627L16.9513 61.52C17.1552 61.3231 17.4283 61.2141 17.7118 61.2166C17.9952 61.219 18.2664 61.3327 18.4668 61.5332C18.6672 61.7336 18.7809 62.0048 18.7834 62.2882C18.7859 62.5717 18.6769 62.8448 18.48 63.0486L17.7373 63.7914C17.5346 63.9941 17.2596 64.108 16.9729 64.1081Z" fill="url(#paint7_linear)"/>
<path d="M72.5676 41.0811H71.5178C71.2311 41.0811 70.9561 40.9672 70.7534 40.7644C70.5507 40.5617 70.4368 40.2867 70.4368 40C70.4368 39.7133 70.5507 39.4383 70.7534 39.2356C70.9561 39.0328 71.2311 38.9189 71.5178 38.9189H72.5676C72.8543 38.9189 73.1293 39.0328 73.332 39.2356C73.5348 39.4383 73.6487 39.7133 73.6487 40C73.6487 40.2867 73.5348 40.5617 73.332 40.7644C73.1293 40.9672 72.8543 41.0811 72.5676 41.0811Z" fill="url(#paint8_linear)"/>
<path d="M8.48213 41.0811H7.4324C7.14568 41.0811 6.8707 40.9672 6.66796 40.7644C6.46522 40.5617 6.35132 40.2867 6.35132 40C6.35132 39.7133 6.46522 39.4383 6.66796 39.2356C6.8707 39.0328 7.14568 38.9189 7.4324 38.9189H8.48213C8.76885 38.9189 9.04383 39.0328 9.24657 39.2356C9.44931 39.4383 9.56321 39.7133 9.56321 40C9.56321 40.2867 9.44931 40.5617 9.24657 40.7644C9.04383 40.9672 8.76885 41.0811 8.48213 41.0811Z" fill="url(#paint9_linear)"/>
<path d="M63.0271 64.1081C62.7404 64.108 62.4654 63.9941 62.2627 63.7914L61.52 63.0486C61.3231 62.8448 61.2141 62.5717 61.2166 62.2882C61.2191 62.0048 61.3328 61.7336 61.5332 61.5332C61.7336 61.3327 62.0048 61.219 62.2882 61.2166C62.5717 61.2141 62.8448 61.3231 63.0487 61.52L63.7914 62.2627C63.9425 62.4139 64.0455 62.6065 64.0872 62.8162C64.1288 63.0259 64.1074 63.2432 64.0256 63.4407C63.9438 63.6382 63.8053 63.807 63.6276 63.9258C63.4498 64.0446 63.2408 64.1081 63.0271 64.1081Z" fill="url(#paint10_linear)"/>
<path d="M17.7135 18.7946C17.4268 18.7945 17.1519 18.6806 16.9492 18.4778L16.2065 17.7351C16.0096 17.5312 15.9006 17.2582 15.9031 16.9747C15.9055 16.6912 16.0192 16.4201 16.2197 16.2196C16.4201 16.0192 16.6912 15.9055 16.9747 15.903C17.2582 15.9006 17.5312 16.0096 17.7351 16.2065L18.4778 16.9492C18.629 17.1004 18.7319 17.293 18.7736 17.5027C18.8153 17.7123 18.7939 17.9297 18.7121 18.1272C18.6303 18.3247 18.4918 18.4935 18.314 18.6123C18.1363 18.7311 17.9273 18.7945 17.7135 18.7946Z" fill="url(#paint11_linear)"/>
<path d="M40 41.0811C38.5033 41.0811 37.0402 40.6372 35.7957 39.8057C34.5512 38.9742 33.5813 37.7923 33.0085 36.4095C32.4357 35.0267 32.2858 33.5051 32.5778 32.0372C32.8698 30.5692 33.5906 29.2208 34.6489 28.1624C35.7073 27.1041 37.0557 26.3833 38.5236 26.0914C39.9916 25.7994 41.5132 25.9492 42.896 26.522C44.2788 27.0948 45.4607 28.0647 46.2922 29.3092C47.1237 30.5537 47.5676 32.0168 47.5676 33.5135C47.5676 33.8002 47.4537 34.0752 47.2509 34.278C47.0482 34.4807 46.7732 34.5946 46.4865 34.5946C46.1998 34.5946 45.9248 34.4807 45.722 34.278C45.5193 34.0752 45.4054 33.8002 45.4054 33.5135C45.4054 32.4444 45.0884 31.3993 44.4944 30.5104C43.9005 29.6215 43.0563 28.9287 42.0686 28.5196C41.0809 28.1104 39.994 28.0034 38.9455 28.212C37.8969 28.4205 36.9338 28.9354 36.1778 29.6913C35.4218 30.4473 34.907 31.4104 34.6985 32.459C34.4899 33.5075 34.5969 34.5944 35.0061 35.5821C35.4152 36.5698 36.108 37.414 36.9969 38.0079C37.8858 38.6019 38.9309 38.9189 40 38.9189C40.2867 38.9189 40.5617 39.0328 40.7644 39.2356C40.9672 39.4383 41.0811 39.7133 41.0811 40C41.0811 40.2867 40.9672 40.5617 40.7644 40.7644C40.5617 40.9672 40.2867 41.0811 40 41.0811Z" fill="url(#paint12_linear)"/>
<path d="M40 54.0541C37.9937 54.0518 36.0701 53.2537 34.6514 51.835C33.2328 50.4163 32.4347 48.4928 32.4324 46.4865C32.4324 46.1998 32.5463 45.9248 32.7491 45.722C32.9518 45.5193 33.2268 45.4054 33.5135 45.4054C33.8002 45.4054 34.0752 45.5193 34.278 45.722C34.4807 45.9248 34.5946 46.1998 34.5946 46.4865C34.5946 47.5556 34.9116 48.6007 35.5056 49.4896C36.0995 50.3785 36.9437 51.0713 37.9314 51.4804C38.9191 51.8896 40.006 51.9966 41.0545 51.788C42.1031 51.5795 43.0662 51.0646 43.8222 50.3087C44.5782 49.5527 45.093 48.5896 45.3015 47.541C45.5101 46.4925 45.4031 45.4056 44.9939 44.4179C44.5848 43.4302 43.892 42.586 43.0031 41.9921C42.1142 41.3981 41.0691 41.0811 40 41.0811C39.7133 41.0811 39.4383 40.9672 39.2356 40.7644C39.0328 40.5617 38.9189 40.2867 38.9189 40C38.9189 39.7133 39.0328 39.4383 39.2356 39.2356C39.4383 39.0328 39.7133 38.9189 40 38.9189C42.007 38.9189 43.9319 39.7162 45.3511 41.1354C46.7703 42.5546 47.5676 44.4794 47.5676 46.4865C47.5676 48.4935 46.7703 50.4184 45.3511 51.8376C43.9319 53.2568 42.007 54.0541 40 54.0541Z" fill="url(#paint13_linear)"/>
<path d="M40 56.6703C39.7133 56.6703 39.4383 56.5564 39.2356 56.3536C39.0328 56.1509 38.9189 55.8759 38.9189 55.5892V24.4108C38.9189 24.1241 39.0328 23.8491 39.2356 23.6464C39.4383 23.4436 39.7133 23.3297 40 23.3297C40.2868 23.3297 40.5617 23.4436 40.7645 23.6464C40.9672 23.8491 41.0811 24.1241 41.0811 24.4108V55.5892C41.0811 55.8759 40.9672 56.1509 40.7645 56.3536C40.5617 56.5564 40.2868 56.6703 40 56.6703Z" fill="url(#paint14_linear)"/>
<defs>
<linearGradient id="paint0_linear" x1="74.6483" y1="25.1882" x2="74.6483" y2="30.4443" gradientUnits="userSpaceOnUse">
<stop stop-color="#FFB800"/>
<stop offset="0.322917" stop-color="#FD6500"/>
</linearGradient>
<linearGradient id="paint1_linear" x1="40.0059" y1="2.16216" x2="40.0059" y2="77.8378" gradientUnits="userSpaceOnUse">
<stop stop-color="#FFB800"/>
<stop offset="0.322917" stop-color="#FD6500"/>
</linearGradient>
<linearGradient id="paint2_linear" x1="69.627" y1="15.9458" x2="69.627" y2="20.6487" gradientUnits="userSpaceOnUse">
<stop stop-color="#FFB800"/>
<stop offset="0.322917" stop-color="#FD6500"/>
</linearGradient>
<linearGradient id="paint3_linear" x1="40" y1="11.8919" x2="40" y2="68.1081" gradientUnits="userSpaceOnUse">
<stop stop-color="#FFB800"/>
<stop offset="0.322917" stop-color="#FD6500"/>
</linearGradient>
<linearGradient id="paint4_linear" x1="40" y1="6.35134" x2="40" y2="9.56323" gradientUnits="userSpaceOnUse">
<stop stop-color="#FFB800"/>
<stop offset="0.322917" stop-color="#FD6500"/>
</linearGradient>
<linearGradient id="paint5_linear" x1="40" y1="70.4368" x2="40" y2="73.6487" gradientUnits="userSpaceOnUse">
<stop stop-color="#FFB800"/>
<stop offset="0.322917" stop-color="#FD6500"/>
</linearGradient>
<linearGradient id="paint6_linear" x1="62.6513" y1="15.903" x2="62.6513" y2="18.7946" gradientUnits="userSpaceOnUse">
<stop stop-color="#FFB800"/>
<stop offset="0.322917" stop-color="#FD6500"/>
</linearGradient>
<linearGradient id="paint7_linear" x1="17.3378" y1="61.2165" x2="17.3378" y2="64.1081" gradientUnits="userSpaceOnUse">
<stop stop-color="#FFB800"/>
<stop offset="0.322917" stop-color="#FD6500"/>
</linearGradient>
<linearGradient id="paint8_linear" x1="72.0427" y1="38.9189" x2="72.0427" y2="41.0811" gradientUnits="userSpaceOnUse">
<stop stop-color="#FFB800"/>
<stop offset="0.322917" stop-color="#FD6500"/>
</linearGradient>
<linearGradient id="paint9_linear" x1="7.95726" y1="38.9189" x2="7.95726" y2="41.0811" gradientUnits="userSpaceOnUse">
<stop stop-color="#FFB800"/>
<stop offset="0.322917" stop-color="#FD6500"/>
</linearGradient>
<linearGradient id="paint10_linear" x1="62.6622" y1="61.2165" x2="62.6622" y2="64.1081" gradientUnits="userSpaceOnUse">
<stop stop-color="#FFB800"/>
<stop offset="0.322917" stop-color="#FD6500"/>
</linearGradient>
<linearGradient id="paint11_linear" x1="17.3487" y1="15.903" x2="17.3487" y2="18.7946" gradientUnits="userSpaceOnUse">
<stop stop-color="#FFB800"/>
<stop offset="0.322917" stop-color="#FD6500"/>
</linearGradient>
<linearGradient id="paint12_linear" x1="40" y1="25.9459" x2="40" y2="41.0811" gradientUnits="userSpaceOnUse">
<stop stop-color="#FFB800"/>
<stop offset="0.322917" stop-color="#FD6500"/>
</linearGradient>
<linearGradient id="paint13_linear" x1="40" y1="38.9189" x2="40" y2="54.0541" gradientUnits="userSpaceOnUse">
<stop stop-color="#FFB800"/>
<stop offset="0.322917" stop-color="#FD6500"/>
</linearGradient>
<linearGradient id="paint14_linear" x1="40" y1="23.3297" x2="40" y2="56.6703" gradientUnits="userSpaceOnUse">
<stop stop-color="#FFB800"/>
<stop offset="0.322917" stop-color="#FD6500"/>
</linearGradient>
</defs>
</svg>
