<svg width="80" height="80" viewBox="0 0 80 80" fill="none" xmlns="http://www.w3.org/2000/svg">
<g clip-path="url(#clip0)">
<path d="M71.0506 24.437L72.6865 22.534L74.2808 23.9047C74.4955 24.0894 74.7687 24.1899 75.0499 24.1899C75.0795 24.1899 75.1091 24.1888 75.1386 24.1866C75.4505 24.163 75.7404 24.0166 75.9444 23.7792L78.4772 20.8333C78.9018 20.3392 78.8457 19.5945 78.3516 19.1698L69.6407 11.6808C69.4034 11.4768 69.0949 11.3743 68.7829 11.3989C68.471 11.4224 68.1811 11.569 67.9771 11.8062L65.4443 14.7521C65.0197 15.2462 65.0758 15.9909 65.5698 16.4156L67.1641 17.7863L65.403 19.8348C61.7955 17.5306 57.6901 15.9398 53.2873 15.2642V11.6998H57.3499C59.2462 11.6998 60.7887 10.1572 60.7887 8.26094V5.51631C60.7887 3.62007 59.246 2.07742 57.3499 2.07742H39.6265C37.7303 2.07742 36.1876 3.62007 36.1876 5.51631V8.26094C36.1876 10.1572 37.7303 11.6998 39.6265 11.6998H43.6894V15.2642C39.1997 15.9531 35.0199 17.5946 31.3613 19.9727L29.4816 17.7863L31.076 16.4156C31.3132 16.2116 31.4596 15.9217 31.4832 15.6098C31.5067 15.2979 31.4054 14.9893 31.2014 14.752L28.6686 11.806C28.2438 11.3121 27.4992 11.2558 27.005 11.6806L18.2942 19.1696C18.057 19.3736 17.9106 19.6635 17.887 19.9754C17.8636 20.2873 17.9648 20.5959 18.1688 20.8333L20.7016 23.7792C20.9349 24.0505 21.2649 24.1897 21.5966 24.1897C21.8688 24.1897 22.1425 24.096 22.3651 23.9046L23.9593 22.534L25.7503 24.6171C24.2004 26.2335 22.8212 28.0148 21.6408 29.9308C21.601 29.9267 21.5605 29.9247 21.5195 29.9247H14.07C13.4185 29.9247 12.8903 30.4528 12.8903 31.1043C12.8903 31.7558 13.4185 32.284 14.07 32.284H20.3266C19.7055 33.5171 19.1632 34.7961 18.706 36.1148H6.78703C6.13555 36.1148 5.60739 36.643 5.60739 37.2944C5.60739 37.9459 6.13555 38.4741 6.78703 38.4741H17.9899C17.5639 40.1092 17.2682 41.7961 17.1105 43.5225H1.17964C0.528165 43.5225 0 44.0506 0 44.7021C0 45.3536 0.528165 45.8818 1.17964 45.8818H16.9835C16.9805 46.0581 16.9768 46.2341 16.9768 46.4112C16.9768 47.9455 17.0892 49.4539 17.3022 50.9302H5.68603C5.03455 50.9302 4.50639 51.4583 4.50639 52.1098C4.50639 52.7613 5.03455 53.2894 5.68603 53.2894H17.7351C18.0276 54.5987 18.4012 55.8776 18.8516 57.1201H12.969C12.3175 57.1201 11.7893 57.6483 11.7893 58.2998C11.7893 58.9513 12.3175 59.4794 12.969 59.4794H19.8172C24.7921 70.3508 35.7721 77.9227 48.4885 77.9227C55.1302 77.9227 61.4825 75.8805 66.8588 72.017C67.3877 71.6368 67.5085 70.8996 67.1284 70.3707C66.7477 69.8414 66.0109 69.7211 65.4819 70.1012C60.5093 73.6748 54.633 75.5636 48.4885 75.5636C32.4137 75.5636 19.3361 62.4859 19.3361 46.4113C19.3361 30.3366 32.4137 17.2589 48.4885 17.2589C56.2699 17.2589 63.349 20.3236 68.5823 25.3093C68.593 25.3206 68.605 25.331 68.6161 25.342C74.1738 30.6535 77.6407 38.1351 77.6407 46.4113C77.6407 54.2077 74.602 61.535 69.0841 67.0431C68.6229 67.5035 68.6223 68.2503 69.0826 68.7115C69.5429 69.1725 70.2898 69.1732 70.7508 68.7129C76.7152 62.7588 80 54.8387 80 46.4112C80 37.8725 76.5849 30.1178 71.0506 24.437ZM68.9972 14.2387L75.9192 20.1896L74.9246 21.3465L68.0026 15.3956L68.9972 14.2387ZM68.9534 19.3244L70.8976 20.9959L69.3404 22.8072C68.7003 22.241 68.0381 21.6989 67.3533 21.1854L68.9534 19.3244ZM43.2715 9.34055V4.4367H45.1765V9.34055H43.2715ZM47.5358 4.4367H49.4408V9.34055H47.5358V4.4367ZM51.8001 9.34055V4.4367H53.7053V9.34055H51.8001ZM58.4297 5.51631V8.26094C58.4297 8.85627 57.9454 9.34055 57.3503 9.34055H56.0648V4.4367H57.3503C57.9454 4.4367 58.4297 4.92098 58.4297 5.51631ZM38.5471 8.26094V5.51631C38.5471 4.92098 39.0314 4.4367 39.6267 4.4367H40.9122V9.34055H39.6267C39.0314 9.34055 38.5471 8.85627 38.5471 8.26094ZM21.7215 21.3466L20.7268 20.1898L27.6486 14.2389L28.6433 15.3957L27.0492 16.7663C27.0492 16.7663 27.049 16.7665 27.0489 16.7665L23.3157 19.976C23.3155 19.9762 23.3155 19.9762 23.3154 19.9764L21.7215 21.3466ZM25.7837 20.9655L27.6925 19.3244L29.424 21.3385C28.7435 21.8572 28.0843 22.4025 27.4487 22.9737L25.7483 20.996L25.7837 20.9655ZM46.0487 14.9931V11.6998H50.9281V14.9932C50.1228 14.9313 49.3092 14.8995 48.4883 14.8995C47.6674 14.8995 46.854 14.9313 46.0487 14.9931Z" fill="url(#paint0_linear)"/>
<path d="M38.6088 24.9195C38.3069 24.3421 37.5941 24.1188 37.0169 24.4205C29.845 28.1692 24.9399 35.192 23.8955 43.2063C22.1284 56.7669 31.7231 69.237 45.2836 71.0039C46.367 71.1451 47.4413 71.2137 48.5058 71.2136C60.766 71.2125 71.4552 62.0929 73.0812 49.6157C73.9371 43.0467 72.1839 36.5376 68.144 31.2872C64.1043 26.0371 58.2619 22.6741 51.6927 21.818C48.4879 21.4003 45.2917 21.6018 42.1922 22.4162C41.5621 22.5818 41.1856 23.2268 41.351 23.8569C41.5166 24.487 42.162 24.8632 42.7918 24.6981C44.2762 24.308 45.786 24.0751 47.3085 23.9969V27.0962C47.3085 27.7477 47.8365 28.2759 48.4882 28.2759C49.1398 28.2759 49.6678 27.7477 49.6678 27.0962V23.9997C50.2405 24.0307 50.814 24.0826 51.3881 24.1573C55.982 24.756 60.1827 26.7107 63.5418 29.7606L61.4054 31.8969C60.9446 32.3576 60.9446 33.1044 61.4053 33.5651C61.6357 33.7955 61.9375 33.9106 62.2395 33.9106C62.5413 33.9106 62.8433 33.7955 63.0736 33.5651L65.2039 31.4348C65.5744 31.8497 65.9316 32.2802 66.2743 32.7256C69.095 36.3915 70.6823 40.7357 70.905 45.2596H67.9789C67.3272 45.2596 66.7992 45.7877 66.7992 46.4392C66.7992 47.0907 67.3272 47.6188 67.9789 47.6188H70.8985C70.8674 48.1816 70.8153 48.7458 70.7417 49.3104C70.134 53.9738 68.1265 58.118 65.1988 61.3772L63.1779 59.3563C62.717 58.8956 61.9702 58.8956 61.5095 59.3563C61.0488 59.817 61.0488 60.5639 61.5095 61.0244L63.5327 63.0476C59.8171 66.4025 55.0059 68.5079 49.8152 68.8134V65.9296C49.8152 65.2781 49.2872 64.7499 48.6356 64.7499C47.9839 64.7499 47.4559 65.2781 47.4559 65.9296V68.8279C46.8367 68.7989 46.214 68.7456 45.5886 68.664C40.9765 68.063 36.8717 66.0934 33.6289 63.2179L35.7183 61.1286C36.179 60.6679 36.179 59.9211 35.7183 59.4604C35.2576 58.9997 34.5107 58.9997 34.0501 59.4604L31.9488 61.5616C28.5436 57.8383 26.4017 52.9953 26.0872 47.7659H29.145C29.7965 47.7659 30.3247 47.2377 30.3247 46.5863C30.3247 45.9348 29.7965 45.4066 29.145 45.4066H26.0699C26.0986 44.7781 26.1522 44.1458 26.2349 43.5108C26.8255 38.9793 28.7805 34.7979 31.7475 31.4706L33.946 33.669C34.1763 33.8994 34.4783 34.0146 34.7801 34.0146C35.0819 34.0146 35.3839 33.8994 35.6142 33.669C36.0749 33.2083 36.0749 32.4614 35.6142 32.0009L33.4097 29.7963C34.8149 28.5193 36.3893 27.4102 38.1097 26.511C38.6871 26.2096 38.9106 25.4968 38.6088 24.9195Z" fill="url(#paint1_linear)"/>
<path d="M48.4885 35.5903C47.8368 35.5903 47.3088 36.1184 47.3088 36.7699V43.777C46.303 44.2293 45.5998 45.2386 45.5998 46.4112C45.5998 48.004 46.8956 49.2999 48.4885 49.2999C48.9251 49.2999 49.3378 49.1997 49.7093 49.0254L57.5794 56.8955C57.8098 57.126 58.1117 57.2411 58.4137 57.2411C58.7155 57.2411 59.0175 57.126 59.2479 56.8955C59.7086 56.4349 59.7086 55.6879 59.2479 55.2274L51.2559 47.2352C51.3339 46.9738 51.3772 46.6976 51.3772 46.4112C51.3772 45.2388 50.674 44.2293 49.6683 43.7771V36.7701C49.6681 36.1184 49.1399 35.5903 48.4885 35.5903ZM47.959 46.411C47.959 46.1191 48.1965 45.8816 48.4885 45.8816C48.7802 45.8816 49.0177 46.1191 49.0177 46.411C49.0177 46.703 48.7802 46.9405 48.4885 46.9405C48.1964 46.9405 47.959 46.703 47.959 46.411Z" fill="url(#paint2_linear)"/>
</g>
<defs>
<linearGradient id="paint0_linear" x1="40" y1="2.07742" x2="40" y2="77.9227" gradientUnits="userSpaceOnUse">
<stop stop-color="#FFB800"/>
<stop offset="0.234375" stop-color="#FD6500"/>
</linearGradient>
<linearGradient id="paint1_linear" x1="48.4895" y1="21.6064" x2="48.4895" y2="71.2136" gradientUnits="userSpaceOnUse">
<stop stop-color="#FFB800"/>
<stop offset="0.234375" stop-color="#FD6500"/>
</linearGradient>
<linearGradient id="paint2_linear" x1="52.5966" y1="35.5903" x2="52.5966" y2="57.2411" gradientUnits="userSpaceOnUse">
<stop stop-color="#FFB800"/>
<stop offset="0.234375" stop-color="#FD6500"/>
</linearGradient>
<clipPath id="clip0">
<rect width="80" height="80" fill="white"/>
</clipPath>
</defs>
</svg>
