<svg width="32" height="32" viewBox="0 0 32 32" fill="none" xmlns="http://www.w3.org/2000/svg">
<path d="M7.793 6.5H5C4.7235 6.5 4.5 6.724 4.5 7V10C4.5 10.276 4.7235 10.5 5 10.5H8C8.2765 10.5 8.5 10.276 8.5 10V7.207L9.3535 6.3535L8.6465 5.6465L7.793 6.5ZM6.793 7.5L5.5 8.793V7.5H6.793ZM7.5 9.5H6.207L7.5 8.207V9.5Z" fill="url(#paint0_linear)"/>
<path d="M7.793 11.5H5C4.7235 11.5 4.5 11.724 4.5 12V15C4.5 15.276 4.7235 15.5 5 15.5H8C8.2765 15.5 8.5 15.276 8.5 15V12.207L9.3535 11.3535L8.6465 10.6465L7.793 11.5ZM6.793 12.5L5.5 13.793V12.5H6.793ZM7.5 14.5H6.207L7.5 13.207V14.5Z" fill="url(#paint1_linear)"/>
<path d="M7.793 16.5H5C4.7235 16.5 4.5 16.7235 4.5 17V20C4.5 20.2765 4.7235 20.5 5 20.5H8C8.2765 20.5 8.5 20.2765 8.5 20V17.207L9.3535 16.3535L8.6465 15.6465L7.793 16.5ZM6.793 17.5L5.5 18.793V17.5H6.793ZM7.5 19.5H6.207L7.5 18.207V19.5Z" fill="url(#paint2_linear)"/>
<path d="M8.6465 20.6465L7.793 21.5H5C4.7235 21.5 4.5 21.7235 4.5 22V25C4.5 25.2765 4.7235 25.5 5 25.5H8C8.2765 25.5 8.5 25.2765 8.5 25V22.207L9.3535 21.3535L8.6465 20.6465ZM6.793 22.5L5.5 23.793V22.5H6.793ZM7.5 24.5H6.207L7.5 23.207V24.5Z" fill="url(#paint3_linear)"/>
<path d="M10.5 6.5H19.5V7.5H10.5V6.5Z" fill="url(#paint4_linear)"/>
<path d="M10.5 9.5H19.5V10.5H10.5V9.5Z" fill="url(#paint5_linear)"/>
<path d="M10.5 11.5H19.5V12.5H10.5V11.5Z" fill="url(#paint6_linear)"/>
<path d="M10.5 14.5H14.5V15.5H10.5V14.5Z" fill="url(#paint7_linear)"/>
<path d="M10.5 16.5H14.5V17.5H10.5V16.5Z" fill="url(#paint8_linear)"/>
<path d="M10.5 19.5H14.5V20.5H10.5V19.5Z" fill="url(#paint9_linear)"/>
<path d="M31 31.5C31.2765 31.5 31.5 31.2765 31.5 31V23C31.5 22.7235 31.2765 22.5 31 22.5H26.5V15C26.5 14.724 26.2765 14.5 26 14.5H24.5V2C24.5 1.724 24.2765 1.5 24 1.5H18.5V1C18.5 0.724 18.2765 0.5 18 0.5H7C6.7235 0.5 6.5 0.724 6.5 1V1.5H1C0.7235 1.5 0.5 1.724 0.5 2V30C0.5 30.2765 0.7235 30.5 1 30.5H10.5V31C10.5 31.2765 10.7235 31.5 11 31.5H31ZM26.5 23.5V25.5H25.5V23.5H26.5ZM16.5 22.5V15.5H19.5V18C19.5 18.2765 19.7235 18.5 20 18.5H22C22.2765 18.5 22.5 18.2765 22.5 18V15.5H25.5V22.5H16.5ZM16.5 23.5V25.5H15.5V23.5H16.5ZM20.5 15.5H21.5V17.5H20.5V15.5ZM23.5 2.5V14.5H22.5V4C22.5 3.724 22.2765 3.5 22 3.5H18.5V2.5H23.5ZM7.5 1.5H17.5V4.5H7.5V1.5ZM1.5 29.5V2.5H6.5V3.5H3C2.7235 3.5 2.5 3.724 2.5 4V27C2.5 27.2765 2.7235 27.5 3 27.5H10.5V29.5H1.5ZM10.5 23V26.5H3.5V4.5H6.5V5C6.5 5.276 6.7235 5.5 7 5.5H18C18.2765 5.5 18.5 5.276 18.5 5V4.5H21.5V14.5H16C15.7235 14.5 15.5 14.724 15.5 15V22.5H11C10.7235 22.5 10.5 22.7235 10.5 23ZM11.5 23.5H14.5V26C14.5 26.2765 14.7235 26.5 15 26.5H17C17.2765 26.5 17.5 26.2765 17.5 26V23.5H20.5V30.5H11.5V23.5ZM30.5 30.5H21.5V23.5H24.5V26C24.5 26.2765 24.7235 26.5 25 26.5H27C27.2765 26.5 27.5 26.2765 27.5 26V23.5H30.5V30.5Z" fill="url(#paint10_linear)"/>
<path d="M27.5 28.5H29.5V29.5H27.5V28.5Z" fill="url(#paint11_linear)"/>
<path d="M22.5 20.5H24.5V21.5H22.5V20.5Z" fill="url(#paint12_linear)"/>
<path d="M17.5 28.5H19.5V29.5H17.5V28.5Z" fill="url(#paint13_linear)"/>
<defs>
<linearGradient id="paint0_linear" x1="6.92675" y1="5.6465" x2="6.92675" y2="10.5" gradientUnits="userSpaceOnUse">
<stop stop-color="#FFC700"/>
<stop offset="0.171875" stop-color="#FD6500"/>
</linearGradient>
<linearGradient id="paint1_linear" x1="6.92675" y1="10.6465" x2="6.92675" y2="15.5" gradientUnits="userSpaceOnUse">
<stop stop-color="#FFC700"/>
<stop offset="0.171875" stop-color="#FD6500"/>
</linearGradient>
<linearGradient id="paint2_linear" x1="6.92675" y1="15.6465" x2="6.92675" y2="20.5" gradientUnits="userSpaceOnUse">
<stop stop-color="#FFC700"/>
<stop offset="0.171875" stop-color="#FD6500"/>
</linearGradient>
<linearGradient id="paint3_linear" x1="6.92675" y1="20.6465" x2="6.92675" y2="25.5" gradientUnits="userSpaceOnUse">
<stop stop-color="#FFC700"/>
<stop offset="0.171875" stop-color="#FD6500"/>
</linearGradient>
<linearGradient id="paint4_linear" x1="15" y1="6.5" x2="15" y2="7.5" gradientUnits="userSpaceOnUse">
<stop stop-color="#FFC700"/>
<stop offset="0.171875" stop-color="#FD6500"/>
</linearGradient>
<linearGradient id="paint5_linear" x1="15" y1="9.5" x2="15" y2="10.5" gradientUnits="userSpaceOnUse">
<stop stop-color="#FFC700"/>
<stop offset="0.171875" stop-color="#FD6500"/>
</linearGradient>
<linearGradient id="paint6_linear" x1="15" y1="11.5" x2="15" y2="12.5" gradientUnits="userSpaceOnUse">
<stop stop-color="#FFC700"/>
<stop offset="0.171875" stop-color="#FD6500"/>
</linearGradient>
<linearGradient id="paint7_linear" x1="12.5" y1="14.5" x2="12.5" y2="15.5" gradientUnits="userSpaceOnUse">
<stop stop-color="#FFC700"/>
<stop offset="0.171875" stop-color="#FD6500"/>
</linearGradient>
<linearGradient id="paint8_linear" x1="12.5" y1="16.5" x2="12.5" y2="17.5" gradientUnits="userSpaceOnUse">
<stop stop-color="#FFC700"/>
<stop offset="0.171875" stop-color="#FD6500"/>
</linearGradient>
<linearGradient id="paint9_linear" x1="12.5" y1="19.5" x2="12.5" y2="20.5" gradientUnits="userSpaceOnUse">
<stop stop-color="#FFC700"/>
<stop offset="0.171875" stop-color="#FD6500"/>
</linearGradient>
<linearGradient id="paint10_linear" x1="16" y1="0.5" x2="16" y2="31.5" gradientUnits="userSpaceOnUse">
<stop stop-color="#FFC700"/>
<stop offset="0.171875" stop-color="#FD6500"/>
</linearGradient>
<linearGradient id="paint11_linear" x1="28.5" y1="28.5" x2="28.5" y2="29.5" gradientUnits="userSpaceOnUse">
<stop stop-color="#FFC700"/>
<stop offset="0.171875" stop-color="#FD6500"/>
</linearGradient>
<linearGradient id="paint12_linear" x1="23.5" y1="20.5" x2="23.5" y2="21.5" gradientUnits="userSpaceOnUse">
<stop stop-color="#FFC700"/>
<stop offset="0.171875" stop-color="#FD6500"/>
</linearGradient>
<linearGradient id="paint13_linear" x1="18.5" y1="28.5" x2="18.5" y2="29.5" gradientUnits="userSpaceOnUse">
<stop stop-color="#FFC700"/>
<stop offset="0.171875" stop-color="#FD6500"/>
</linearGradient>
</defs>
</svg>
