<svg width="80" height="80" viewBox="0 0 80 80" fill="none" xmlns="http://www.w3.org/2000/svg">
<path d="M74.8552 31.2475H74.8423C73.6339 31.2475 72.5623 30.4662 72.1761 29.3033C71.6669 27.7716 71.0417 26.2633 70.318 24.8208C69.7664 23.7211 69.9703 22.4078 70.8222 21.5559C70.8233 21.555 70.8344 21.5439 70.8355 21.5428C72.8414 19.5369 72.8414 16.2728 70.8355 14.2669L65.7334 9.16484C63.7273 7.15891 60.4636 7.15875 58.4606 9.16172C58.4595 9.16266 58.4484 9.17375 58.4473 9.17484C57.5925 10.0298 56.2794 10.2339 55.1795 9.68219C53.7355 8.95781 52.227 8.33266 50.6969 7.82422C49.5341 7.43781 48.7528 6.36625 48.7528 5.14516C48.7527 2.30797 46.4445 0 43.6077 0H36.3923C33.5555 0 31.2475 2.30797 31.2475 5.15766C31.2475 6.36594 30.4663 7.4375 29.3034 7.82391C27.7727 8.3325 26.2644 8.95766 24.8206 9.68188C23.7209 10.2336 22.4078 10.0295 21.5427 9.16453C19.5367 7.15859 16.2727 7.15859 14.2667 9.16453L9.16469 14.2667C7.15875 16.2727 7.15875 19.5367 9.17469 21.5527C10.0297 22.4077 10.2336 23.7209 9.68188 24.8206C8.95766 26.2644 8.33266 27.7727 7.82391 29.3033C7.4375 30.4661 6.36594 31.2475 5.14484 31.2475C2.30797 31.2475 0 33.5555 0 36.3923V43.6077C0 46.4445 2.30797 48.7525 5.15766 48.7525C6.36594 48.7525 7.4375 49.5338 7.82391 50.6966C8.3325 52.2275 8.95766 53.7358 9.68188 55.1794C10.2334 56.2791 10.0297 57.5922 9.16453 58.4573C7.15859 60.4634 7.15859 63.7273 9.16453 65.7333L14.2666 70.8353C16.2725 72.8412 19.5366 72.8414 21.5525 70.8253C22.4075 69.9703 23.7205 69.7664 24.8205 70.318C26.2639 71.0422 27.7722 71.6672 29.3031 72.1759C30.4659 72.5623 31.2473 73.6339 31.2473 74.855C31.2473 77.6919 33.5553 79.9998 36.3922 79.9998H43.6075C46.4444 79.9998 48.7525 77.6919 48.7525 74.8422C48.7525 73.6339 49.5338 72.5623 50.6966 72.1759C52.2272 71.6673 53.7355 71.0422 55.1794 70.318C56.2789 69.7667 57.5922 69.9703 58.4572 70.8353C60.4633 72.8412 63.7272 72.8414 65.7331 70.8353L70.8352 65.7333C72.8411 63.7273 72.8411 60.4634 70.8252 58.4473C69.9702 57.5923 69.7663 56.2791 70.3178 55.1795C71.0417 53.7364 71.6669 52.2283 72.1759 50.6966C72.5623 49.5338 73.6338 48.7525 74.855 48.7525C77.6919 48.7525 79.9998 46.4445 79.9998 43.6077V36.3923C80 33.5555 77.692 31.2475 74.8552 31.2475ZM77.6562 43.6077C77.6562 45.1522 76.3997 46.4087 74.8423 46.4087C72.6223 46.4087 70.657 47.835 69.9519 49.9575C69.4783 51.3825 68.8966 52.7859 68.223 54.1286C67.2178 56.1325 67.5977 58.5341 69.178 60.1145C70.2702 61.2067 70.2702 62.9837 69.178 64.0759L64.0759 69.178C62.9839 70.27 61.2066 70.27 60.1047 69.168C58.5342 67.5975 56.1322 67.2181 54.1288 68.223C52.7852 68.8969 51.3819 69.4786 49.9577 69.9517C47.835 70.657 46.4089 72.6223 46.4089 74.855C46.4089 76.3995 45.1523 77.6561 43.6077 77.6561H36.3923C34.8478 77.6561 33.5912 76.3995 33.5912 74.8422C33.5912 72.6223 32.1652 70.657 30.0423 69.9517C28.618 69.4784 27.2145 68.8967 25.8714 68.223C23.8623 67.2153 21.4619 67.6016 19.8853 69.178C18.7931 70.2702 17.0161 70.27 15.9239 69.178L10.8219 64.0759C9.72969 62.9837 9.72984 61.2067 10.8319 60.1045C12.4023 58.5341 12.782 56.1325 11.7767 54.1284C11.103 52.7852 10.5212 51.3819 10.048 49.9575C9.34266 47.8348 7.37734 46.4087 5.14469 46.4087C3.60016 46.4087 2.34359 45.1522 2.34359 43.6077V36.3923C2.34359 34.8478 3.60016 33.5912 5.1575 33.5912C7.37734 33.5912 9.34266 32.1652 10.048 30.0423C10.5212 28.6181 11.1028 27.2148 11.7767 25.8714C12.782 23.8675 12.4023 21.4659 10.8219 19.8853C9.72969 18.7931 9.72984 17.0161 10.8219 15.9239L15.9239 10.8219C17.0161 9.72953 18.7931 9.72969 19.8953 10.8319C21.4658 12.4022 23.8675 12.7822 25.8714 11.7769C27.2148 11.103 28.6183 10.5212 30.0423 10.0481C32.165 9.34281 33.5911 7.3775 33.5911 5.14484C33.5911 3.60031 34.8477 2.34375 36.3922 2.34375H43.6075C45.1522 2.34375 46.4087 3.60031 46.4087 5.15766C46.4087 7.3775 47.8348 9.34281 49.9575 10.0481C51.3814 10.5212 52.7848 11.103 54.1284 11.7769C56.1323 12.7822 58.5342 12.4025 60.1014 10.835C60.1025 10.8341 60.1136 10.823 60.1147 10.8219C61.2066 9.72984 62.9839 9.72984 64.0759 10.8219L69.178 15.9239C70.2702 17.0161 70.2702 18.7931 69.1813 19.8822C69.1802 19.8831 69.1691 19.8942 69.168 19.8953C67.5977 21.4658 67.218 23.8673 68.223 25.8714C68.8966 27.2137 69.4781 28.6172 69.9519 30.0422C70.657 32.1648 72.6223 33.5911 74.8423 33.5911H74.8552C76.3997 33.5911 77.6562 34.8477 77.6562 36.3922V43.6077Z" fill="url(#paint0_linear)"/>
<path d="M53.9747 57.1438C50.0453 60.3509 45.0823 62.1172 40 62.1172C27.8045 62.1172 17.8828 52.1955 17.8828 40C17.8828 34.9355 19.638 29.9861 22.8251 26.0634C23.2333 25.5611 23.157 24.8231 22.6547 24.415C22.1523 24.0067 21.4144 24.0831 21.0062 24.5855C17.4806 28.9247 15.539 34.3989 15.539 40C15.539 53.4878 26.5122 64.4609 40 64.4609C45.6208 64.4609 51.11 62.5072 55.4566 58.9597C55.958 58.5505 56.0328 57.8122 55.6234 57.3108C55.2144 56.8092 54.4761 56.7344 53.9747 57.1438Z" fill="url(#paint1_linear)"/>
<path d="M40 23.0611C30.6598 23.0611 23.0609 30.6598 23.0609 40C23.0609 49.3402 30.6597 56.9391 40 56.9391C49.3403 56.9391 56.9389 49.3402 56.9389 40C56.9389 30.6598 49.3402 23.0611 40 23.0611ZM40 54.5953C31.9522 54.5953 25.4047 48.048 25.4047 40C25.4047 31.9522 31.952 25.4048 40 25.4048C48.0478 25.4048 54.5952 31.9522 54.5952 40C54.5952 48.0478 48.0478 54.5953 40 54.5953Z" fill="url(#paint2_linear)"/>
<path d="M40 15.539C34.5916 15.539 29.4656 17.2686 25.1764 20.5409C24.6619 20.9334 24.563 21.6689 24.9555 22.1834C25.3481 22.6981 26.0834 22.7967 26.598 22.4044C30.4753 19.4464 35.1097 17.8828 40 17.8828C52.1955 17.8828 62.1172 27.8045 62.1172 40C62.1172 44.8903 60.5536 49.5247 57.5956 53.4022C57.203 53.9167 57.302 54.6522 57.8166 55.0447C58.3298 55.4364 59.0656 55.3395 59.4591 54.8238C62.7312 50.5344 64.4609 45.4084 64.4609 40C64.4609 26.5122 53.4878 15.539 40 15.539Z" fill="url(#paint3_linear)"/>
<defs>
<linearGradient id="paint0_linear" x1="39.9999" y1="0" x2="39.9999" y2="79.9998" gradientUnits="userSpaceOnUse">
<stop stop-color="#FFB800"/>
<stop offset="0.359375" stop-color="#FD6500"/>
</linearGradient>
<linearGradient id="paint1_linear" x1="35.7133" y1="24.1525" x2="35.7133" y2="64.4609" gradientUnits="userSpaceOnUse">
<stop stop-color="#FFB800"/>
<stop offset="0.359375" stop-color="#FD6500"/>
</linearGradient>
<linearGradient id="paint2_linear" x1="39.9999" y1="23.0611" x2="39.9999" y2="56.9391" gradientUnits="userSpaceOnUse">
<stop stop-color="#FFB800"/>
<stop offset="0.359375" stop-color="#FD6500"/>
</linearGradient>
<linearGradient id="paint3_linear" x1="44.5881" y1="15.539" x2="44.5881" y2="55.2849" gradientUnits="userSpaceOnUse">
<stop stop-color="#FFB800"/>
<stop offset="0.359375" stop-color="#FD6500"/>
</linearGradient>
</defs>
</svg>
