<svg width="32" height="32" viewBox="0 0 32 32" fill="none" xmlns="http://www.w3.org/2000/svg">
<path d="M27.125 14.515L25.66 14.025C25.5574 13.9916 25.4465 13.9933 25.345 14.03L25.185 13.065C25.6585 12.8031 26.065 12.4353 26.3729 11.9904C26.6808 11.5455 26.8818 11.0354 26.96 10.5H27.5C27.765 10.4992 28.0189 10.3936 28.2062 10.2062C28.3936 10.0189 28.4992 9.76497 28.5 9.5V9C28.4996 8.76806 28.4186 8.54348 28.2708 8.3647C28.123 8.18592 27.9177 8.06407 27.69 8.02L28.355 7.355C28.4471 7.25966 28.499 7.13256 28.5 7V6.5C28.4989 5.57207 28.1299 4.68244 27.4737 4.0263C26.8176 3.37015 25.9279 3.00106 25 3H22C21.0721 3.00106 20.1824 3.37015 19.5263 4.0263C18.8701 4.68244 18.5011 5.57207 18.5 6.5V7C18.501 7.13256 18.5529 7.25966 18.645 7.355L19.31 8.02C19.0823 8.06407 18.877 8.18592 18.7292 8.3647C18.5814 8.54348 18.5004 8.76806 18.5 9V9.5C18.5008 9.76497 18.6064 10.0189 18.7938 10.2062C18.9811 10.3936 19.235 10.4992 19.5 10.5H20.04C20.1182 11.0354 20.3192 11.5455 20.6271 11.9904C20.935 12.4353 21.3415 12.8031 21.815 13.065L21.655 14.03C21.5535 13.9933 21.4426 13.9916 21.34 14.025L19.875 14.515C18.7954 14.6664 17.8075 15.2045 17.0948 16.0294C16.3821 16.8543 15.9931 17.9099 16 19V19.075L12.98 15.3C12.931 14.6752 12.6487 14.0918 12.1892 13.6656C11.7297 13.2395 11.1267 13.0019 10.5 13H5.5C5.36739 13 5.24021 13.0527 5.14645 13.1464C5.05268 13.2402 5 13.3674 5 13.5C5 14.163 5.26339 14.7989 5.73223 15.2678C6.20107 15.7366 6.83696 16 7.5 16H9.23L16 26.15V29.5C16.0012 29.8975 16.1596 30.2783 16.4407 30.5593C16.7217 30.8404 17.1025 30.9988 17.5 31H30.5C30.6326 31 30.7598 30.9473 30.8536 30.8536C30.9473 30.7598 31 30.6326 31 30.5V19C31.0069 17.9099 30.6179 16.8543 29.9052 16.0294C29.1925 15.2045 28.2046 14.6664 27.125 14.515ZM27.5 9.5H27V9H27.5V9.5ZM20 9.5H19.5V9H20V9.5ZM20 7V7.295L19.5 6.795V6.5C19.5 5.83696 19.7634 5.20107 20.2322 4.73223C20.7011 4.26339 21.337 4 22 4H25C25.663 4 26.2989 4.26339 26.7678 4.73223C27.2366 5.20107 27.5 5.83696 27.5 6.5V6.795L27 7.295V7C27.0011 6.90739 26.9758 6.81638 26.9271 6.73759C26.8784 6.6588 26.8083 6.59547 26.725 6.555L24.725 5.555C24.6188 5.4999 24.496 5.48567 24.38 5.515L20.38 6.515C20.2716 6.5418 20.1753 6.60412 20.1064 6.69201C20.0375 6.77991 20.0001 6.88833 20 7ZM21 10V7.39L24.44 6.53L26 7.31V10C26 10.663 25.7366 11.2989 25.2678 11.7678C24.7989 12.2366 24.163 12.5 23.5 12.5C22.837 12.5 22.2011 12.2366 21.7322 11.7678C21.2634 11.2989 21 10.663 21 10ZM24.465 14.83L23.5 15.795L22.535 14.83L22.77 13.42C23.2508 13.5267 23.7492 13.5267 24.23 13.42L24.465 14.83ZM21.365 15.07L23.145 16.855C23.2394 16.9487 23.367 17.0012 23.5 17.0012C23.633 17.0012 23.7606 16.9487 23.855 16.855L25.635 15.07L26.2 15.26L24.245 18H22.755L20.8 15.26L21.365 15.07ZM24.41 21L24.965 24.33L23.5 25.795L22.035 24.33L22.59 21H24.41ZM22.755 20L22.925 19H24.075L24.245 20H22.755ZM7.5 15C7.18992 14.9991 6.88764 14.9027 6.63441 14.7237C6.38118 14.5447 6.18932 14.292 6.085 14H10.5C10.8101 14.0009 11.1124 14.0973 11.3656 14.2763C11.6188 14.4553 11.8107 14.708 11.915 15H7.5ZM30 30H28V25H30V30ZM30 24H27.5C27.3674 24 27.2402 24.0527 27.1464 24.1464C27.0527 24.2402 27 24.3674 27 24.5V30H17.5C17.3674 30 17.2402 29.9473 17.1464 29.8536C17.0527 29.7598 17 29.6326 17 29.5V26C17.0002 25.9018 16.9706 25.8059 16.915 25.725L10.435 16H12.26L16.11 20.81C16.1738 20.8918 16.2618 20.9514 16.3615 20.9801C16.4612 21.0089 16.5674 21.0053 16.665 20.97C16.7626 20.9359 16.8472 20.8724 16.9072 20.7882C16.9672 20.7041 16.9996 20.6034 17 20.5V19C16.9943 18.1927 17.2672 17.4082 17.7728 16.7788C18.2783 16.1493 18.9855 15.7136 19.775 15.545L21.975 18.62L21.005 24.42C20.9925 24.4984 20.9987 24.5786 21.023 24.6542C21.0474 24.7298 21.0891 24.7986 21.145 24.855L23.145 26.855C23.2398 26.948 23.3672 27 23.5 27C23.6328 27 23.7602 26.948 23.855 26.855L25.855 24.855C25.9109 24.7986 25.9526 24.7298 25.977 24.6542C26.0013 24.5786 26.0075 24.4984 25.995 24.42L25.025 18.62L27.225 15.545C28.0145 15.7136 28.7217 16.1493 29.2272 16.7788C29.7328 17.4082 30.0057 18.1927 30 19V24Z" fill="url(#paint0_linear)"/>
<path d="M2.5 12H14.5C14.8978 12 15.2794 11.842 15.5607 11.5607C15.842 11.2794 16 10.8978 16 10.5V2.5C16 2.10218 15.842 1.72064 15.5607 1.43934C15.2794 1.15804 14.8978 1 14.5 1H2.5C2.10218 1 1.72064 1.15804 1.43934 1.43934C1.15804 1.72064 1 2.10218 1 2.5V10.5C1 10.8978 1.15804 11.2794 1.43934 11.5607C1.72064 11.842 2.10218 12 2.5 12ZM2 2.5C2 2.36739 2.05268 2.24021 2.14645 2.14645C2.24021 2.05268 2.36739 2 2.5 2H14.5C14.6326 2 14.7598 2.05268 14.8536 2.14645C14.9473 2.24021 15 2.36739 15 2.5V10.5C15 10.6326 14.9473 10.7598 14.8536 10.8536C14.7598 10.9473 14.6326 11 14.5 11H2.5C2.36739 11 2.24021 10.9473 2.14645 10.8536C2.05268 10.7598 2 10.6326 2 10.5V2.5Z" fill="url(#paint1_linear)"/>
<path d="M3 3H4V4H3V3Z" fill="url(#paint2_linear)"/>
<path d="M5 3H14V4H5V3Z" fill="url(#paint3_linear)"/>
<path d="M3 7H14V8H3V7Z" fill="url(#paint4_linear)"/>
<path d="M3 5H14V6H3V5Z" fill="url(#paint5_linear)"/>
<path d="M3 9H14V10H3V9Z" fill="url(#paint6_linear)"/>
<path d="M5.5 24.5C5.10444 24.5 4.71776 24.6173 4.38886 24.8371C4.05996 25.0568 3.80362 25.3692 3.65224 25.7346C3.50087 26.1001 3.46126 26.5022 3.53843 26.8902C3.6156 27.2781 3.80608 27.6345 4.08579 27.9142C4.36549 28.1939 4.72186 28.3844 5.10982 28.4616C5.49778 28.5387 5.89992 28.4991 6.26537 28.3478C6.63082 28.1964 6.94318 27.94 7.16294 27.6111C7.3827 27.2822 7.5 26.8956 7.5 26.5C7.5 25.9696 7.28929 25.4609 6.91421 25.0858C6.53914 24.7107 6.03043 24.5 5.5 24.5ZM5.5 27.5C5.30222 27.5 5.10888 27.4414 4.94443 27.3315C4.77998 27.2216 4.65181 27.0654 4.57612 26.8827C4.50043 26.7 4.48063 26.4989 4.51922 26.3049C4.5578 26.1109 4.65304 25.9327 4.79289 25.7929C4.93275 25.653 5.11093 25.5578 5.30491 25.5192C5.49889 25.4806 5.69996 25.5004 5.88268 25.5761C6.06541 25.6518 6.22159 25.78 6.33147 25.9444C6.44135 26.1089 6.5 26.3022 6.5 26.5C6.5 26.7652 6.39464 27.0196 6.20711 27.2071C6.01957 27.3946 5.76522 27.5 5.5 27.5Z" fill="url(#paint7_linear)"/>
<path d="M9.6215 25.015L9.287 24.9315L9.4645 24.636C9.52188 24.5403 9.54562 24.4282 9.53194 24.3175C9.51826 24.2068 9.46794 24.1038 9.389 24.025L7.975 22.611C7.89618 22.5321 7.79321 22.4817 7.6825 22.4681C7.57178 22.4544 7.45967 22.4781 7.364 22.5355L7.0685 22.713L6.985 22.3785C6.95791 22.2704 6.89548 22.1744 6.8076 22.1058C6.71973 22.0373 6.61146 22 6.5 22H4.5C4.38854 22 4.28027 22.0373 4.1924 22.1058C4.10452 22.1744 4.04209 22.2704 4.015 22.3785L3.9315 22.713L3.636 22.5355C3.54033 22.4781 3.42822 22.4544 3.3175 22.4681C3.20679 22.4817 3.10382 22.5321 3.025 22.611L1.611 24.025C1.53206 24.1038 1.48174 24.2068 1.46806 24.3175C1.45438 24.4282 1.47812 24.5403 1.5355 24.636L1.713 24.9315L1.3785 25.015C1.27038 25.0421 1.1744 25.1045 1.10583 25.1924C1.03725 25.2803 1 25.3885 1 25.5V27.5C1 27.6115 1.03725 27.7197 1.10583 27.8076C1.1744 27.8955 1.27038 27.9579 1.3785 27.985L1.713 28.0685L1.5355 28.364C1.47812 28.4597 1.45438 28.5718 1.46806 28.6825C1.48174 28.7932 1.53206 28.8962 1.611 28.975L3.025 30.389C3.10382 30.4679 3.20679 30.5183 3.3175 30.5319C3.42822 30.5456 3.54033 30.5219 3.636 30.4645L3.9315 30.287L4.015 30.6215C4.04209 30.7296 4.10452 30.8256 4.1924 30.8942C4.28027 30.9627 4.38854 31 4.5 31H6.5C6.61146 31 6.71973 30.9627 6.8076 30.8942C6.89548 30.8256 6.95791 30.7296 6.985 30.6215L7.0685 30.287L7.364 30.4645C7.45967 30.5219 7.57178 30.5456 7.6825 30.5319C7.79321 30.5183 7.89618 30.4679 7.975 30.389L9.389 28.975C9.46794 28.8962 9.51826 28.7932 9.53194 28.6825C9.54562 28.5718 9.52188 28.4597 9.4645 28.364L9.287 28.0685L9.6215 27.985C9.72962 27.9579 9.8256 27.8955 9.89417 27.8076C9.96275 27.7197 10 27.6115 10 27.5V25.5C10 25.3885 9.96275 25.2803 9.89417 25.1924C9.8256 25.1045 9.72962 25.0421 9.6215 25.015ZM9 27.1095L8.3895 27.2595C8.31373 27.2785 8.24347 27.315 8.18434 27.366C8.12522 27.4171 8.07887 27.4813 8.04903 27.5534C8.01918 27.6256 8.00666 27.7038 8.01248 27.7817C8.01829 27.8596 8.04227 27.935 8.0825 28.002L8.406 28.5415L7.544 29.4035L7.0045 29.08C6.93754 29.0398 6.86209 29.0158 6.7842 29.01C6.7063 29.0042 6.62813 29.0167 6.55594 29.0465C6.48376 29.0764 6.41957 29.1227 6.36852 29.1818C6.31748 29.241 6.281 29.3112 6.262 29.387L6.1095 30H4.8905L4.7405 29.3895C4.7215 29.3137 4.68502 29.2435 4.63398 29.1843C4.58293 29.1252 4.51874 29.0789 4.44656 29.049C4.37437 29.0192 4.2962 29.0067 4.2183 29.0125C4.14041 29.0183 4.06496 29.0423 3.998 29.0825L3.4585 29.406L2.594 28.544L2.9175 28.0045C2.95773 27.9375 2.98171 27.8621 2.98752 27.7842C2.99334 27.7063 2.98082 27.6281 2.95097 27.5559C2.92113 27.4838 2.87478 27.4196 2.81566 27.3685C2.75653 27.3175 2.68627 27.281 2.6105 27.262L2 27.1095V25.8905L2.6105 25.7405C2.68627 25.7215 2.75653 25.685 2.81566 25.634C2.87478 25.5829 2.92113 25.5187 2.95097 25.4466C2.98082 25.3744 2.99334 25.2962 2.98752 25.2183C2.98171 25.1404 2.95773 25.065 2.9175 24.998L2.594 24.4585L3.456 23.5965L3.9955 23.92C4.06249 23.9602 4.13797 23.9842 4.2159 23.99C4.29382 23.9958 4.37202 23.9832 4.44421 23.9533C4.51641 23.9234 4.58059 23.877 4.63161 23.8178C4.68263 23.7586 4.71907 23.6883 4.738 23.6125L4.888 23.0025H6.107L6.257 23.6125C6.27593 23.6883 6.31237 23.7586 6.36339 23.8178C6.41441 23.877 6.47859 23.9234 6.55079 23.9533C6.62298 23.9832 6.70117 23.9958 6.7791 23.99C6.85703 23.9842 6.93251 23.9602 6.9995 23.92L7.539 23.5965L8.401 24.4585L8.0775 24.998C8.03727 25.065 8.01329 25.1404 8.00748 25.2183C8.00166 25.2962 8.01418 25.3744 8.04403 25.4466C8.07387 25.5187 8.12022 25.5829 8.17934 25.634C8.23847 25.685 8.30873 25.7215 8.3845 25.7405L8.995 25.8905L9 27.1095Z" fill="url(#paint8_linear)"/>
<path d="M5 20H6V21H5V20Z" fill="url(#paint9_linear)"/>
<path d="M5 16.5H6V19H5V16.5Z" fill="url(#paint10_linear)"/>
<path d="M11 26H12V27H11V26Z" fill="url(#paint11_linear)"/>
<path d="M13 26H15V27H13V26Z" fill="url(#paint12_linear)"/>
<defs>
<linearGradient id="paint0_linear" x1="18" y1="3" x2="18" y2="31" gradientUnits="userSpaceOnUse">
<stop stop-color="#FFC700"/>
<stop offset="0.197917" stop-color="#FD6500"/>
</linearGradient>
<linearGradient id="paint1_linear" x1="8.5" y1="1" x2="8.5" y2="12" gradientUnits="userSpaceOnUse">
<stop stop-color="#FFC700"/>
<stop offset="0.197917" stop-color="#FD6500"/>
</linearGradient>
<linearGradient id="paint2_linear" x1="3.5" y1="3" x2="3.5" y2="4" gradientUnits="userSpaceOnUse">
<stop stop-color="#FFC700"/>
<stop offset="0.197917" stop-color="#FD6500"/>
</linearGradient>
<linearGradient id="paint3_linear" x1="9.5" y1="3" x2="9.5" y2="4" gradientUnits="userSpaceOnUse">
<stop stop-color="#FFC700"/>
<stop offset="0.197917" stop-color="#FD6500"/>
</linearGradient>
<linearGradient id="paint4_linear" x1="8.5" y1="7" x2="8.5" y2="8" gradientUnits="userSpaceOnUse">
<stop stop-color="#FFC700"/>
<stop offset="0.197917" stop-color="#FD6500"/>
</linearGradient>
<linearGradient id="paint5_linear" x1="8.5" y1="5" x2="8.5" y2="6" gradientUnits="userSpaceOnUse">
<stop stop-color="#FFC700"/>
<stop offset="0.197917" stop-color="#FD6500"/>
</linearGradient>
<linearGradient id="paint6_linear" x1="8.5" y1="9" x2="8.5" y2="10" gradientUnits="userSpaceOnUse">
<stop stop-color="#FFC700"/>
<stop offset="0.197917" stop-color="#FD6500"/>
</linearGradient>
<linearGradient id="paint7_linear" x1="5.5" y1="24.5" x2="5.5" y2="28.5" gradientUnits="userSpaceOnUse">
<stop stop-color="#FFC700"/>
<stop offset="0.197917" stop-color="#FD6500"/>
</linearGradient>
<linearGradient id="paint8_linear" x1="5.5" y1="22" x2="5.5" y2="31" gradientUnits="userSpaceOnUse">
<stop stop-color="#FFC700"/>
<stop offset="0.197917" stop-color="#FD6500"/>
</linearGradient>
<linearGradient id="paint9_linear" x1="5.5" y1="20" x2="5.5" y2="21" gradientUnits="userSpaceOnUse">
<stop stop-color="#FFC700"/>
<stop offset="0.197917" stop-color="#FD6500"/>
</linearGradient>
<linearGradient id="paint10_linear" x1="5.5" y1="16.5" x2="5.5" y2="19" gradientUnits="userSpaceOnUse">
<stop stop-color="#FFC700"/>
<stop offset="0.197917" stop-color="#FD6500"/>
</linearGradient>
<linearGradient id="paint11_linear" x1="11.5" y1="26" x2="11.5" y2="27" gradientUnits="userSpaceOnUse">
<stop stop-color="#FFC700"/>
<stop offset="0.197917" stop-color="#FD6500"/>
</linearGradient>
<linearGradient id="paint12_linear" x1="14" y1="26" x2="14" y2="27" gradientUnits="userSpaceOnUse">
<stop stop-color="#FFC700"/>
<stop offset="0.197917" stop-color="#FD6500"/>
</linearGradient>
</defs>
</svg>
