<svg width="80" height="80" viewBox="0 0 80 80" fill="none" xmlns="http://www.w3.org/2000/svg">
<path d="M78.6667 72H74.6667V46.6667C74.6662 45.9303 74.0687 45.3338 73.3323 45.3343C72.8978 45.3347 72.4907 45.5467 72.2413 45.9027L53.5747 72.5693C53.1527 73.1728 53.2998 74.0042 53.9033 74.426C54.1272 74.5825 54.3935 74.6665 54.6667 74.6667H72V78.6667C72 79.403 72.597 80 73.3333 80C74.0697 80 74.6667 79.403 74.6667 78.6667V74.6667H78.6667C79.403 74.6667 80 74.0697 80 73.3333C80 72.597 79.403 72 78.6667 72ZM72 72H57.2267L72 50.896V72Z" fill="url(#paint0_linear)"/>
<path d="M54.6667 77.3333H38.8813L53.5573 60.052C53.5907 60.0123 53.6218 59.971 53.6507 59.928C56.4117 55.8417 55.492 50.3092 51.5573 47.336C46.7732 43.8985 40.1082 44.9903 36.6708 49.7745C35.3673 51.5887 34.6663 53.7662 34.6667 56C34.6667 56.7363 35.2637 57.3333 36 57.3333C36.7363 57.3333 37.3333 56.7363 37.3333 56C37.3328 51.5817 40.9143 47.9997 45.3325 47.9992C47.0072 47.999 48.6397 48.5243 50 49.5013C52.7562 51.6132 53.398 55.5025 51.4667 58.388L34.984 77.804C34.5075 78.3655 34.5765 79.2068 35.138 79.6833C35.3788 79.8877 35.6842 79.9998 36 80H54.6667C55.403 80 56 79.403 56 78.6667C56 77.9303 55.403 77.3333 54.6667 77.3333Z" fill="url(#paint1_linear)"/>
<path d="M36.0293 70.692C36.0572 69.9562 35.483 69.3372 34.7472 69.3093C34.747 69.3093 34.7468 69.3093 34.7467 69.3093C17.3517 68.6637 3.39017 54.7272 2.71333 37.3333H8C8.73633 37.3333 9.33333 36.7363 9.33333 36C9.33333 35.2637 8.73633 34.6667 8 34.6667H2.71333C3.3805 17.3035 17.3033 3.38117 34.6667 2.71467V6.66667C34.6667 7.403 35.2637 8 36 8C36.7363 8 37.3333 7.403 37.3333 6.66667V2.71467C54.459 3.377 68.281 16.938 69.2693 34.048L64.0693 28.848C63.5397 28.3363 62.6957 28.351 62.184 28.8807C61.685 29.3973 61.685 30.2165 62.184 30.7333L69.6267 38.176C69.7668 38.3457 69.9475 38.4772 70.152 38.5587C70.2042 38.5743 70.2572 38.5873 70.3107 38.5973C70.4022 38.6303 70.4968 38.6532 70.5933 38.6653C70.6067 38.6653 70.6187 38.6653 70.632 38.6653C70.6453 38.6653 70.6573 38.6653 70.6693 38.6653C70.7708 38.6577 70.8712 38.638 70.968 38.6067C71.0228 38.6 71.0772 38.5898 71.1307 38.576C71.3112 38.5118 71.4755 38.409 71.612 38.2747L79.156 30.7333C79.6675 30.2037 79.653 29.3597 79.1233 28.848C78.6067 28.349 77.7875 28.349 77.2707 28.848L71.9413 34.1733C70.9888 15.0617 55.23 0.0468333 36.0947 0.0186667C36.0613 0.0173333 36.0333 0 36 0C35.9667 0 35.9387 0.0173333 35.9053 0.0186667C16.097 0.0458333 0.0458333 16.097 0.0186667 35.9053C0.0186667 35.9387 0 35.9667 0 36C0 36.0333 0.0173333 36.0613 0.0186667 36.0947C0.0518333 55.4142 15.3418 71.2563 34.648 71.9747H34.6973C35.4138 71.9745 36.0022 71.408 36.0293 70.692Z" fill="url(#paint2_linear)"/>
<path d="M53.9133 18.0867C53.3927 17.5662 52.5487 17.5662 52.028 18.0867L37.7 32.4133C36.6175 31.9307 35.381 31.9307 34.2987 32.4133L27.5146 25.6293C26.985 25.1178 26.1408 25.1325 25.6293 25.6622C25.1303 26.1788 25.1303 26.998 25.6293 27.5147L32.4 34.2853C31.4493 36.2753 32.292 38.6593 34.2822 39.6098C35.8097 40.3395 37.6313 40.0267 38.828 38.8293C40.0312 37.6363 40.341 35.8097 39.5987 34.2867L53.9133 19.972C54.4338 19.4513 54.4338 18.6073 53.9133 18.0867ZM36.943 36.9423C36.9428 36.9425 36.9428 36.9425 36.9427 36.9427C36.4153 37.4468 35.5847 37.4468 35.0573 36.9427C34.5365 36.422 34.5365 35.5778 35.057 35.057C35.5777 34.5362 36.4218 34.5362 36.9427 35.0567C37.4635 35.5773 37.4635 36.4217 36.943 36.9423Z" fill="url(#paint3_linear)"/>
<defs>
<linearGradient id="paint0_linear" x1="66.667" y1="45.3343" x2="66.667" y2="80" gradientUnits="userSpaceOnUse">
<stop stop-color="#FFDE00"/>
<stop offset="0.265625" stop-color="#FD6500"/>
</linearGradient>
<linearGradient id="paint1_linear" x1="45.3333" y1="45.331" x2="45.3333" y2="80" gradientUnits="userSpaceOnUse">
<stop stop-color="#FFDE00"/>
<stop offset="0.265625" stop-color="#FD6500"/>
</linearGradient>
<linearGradient id="paint2_linear" x1="39.7652" y1="0" x2="39.7652" y2="71.9747" gradientUnits="userSpaceOnUse">
<stop stop-color="#FFDE00"/>
<stop offset="0.265625" stop-color="#FD6500"/>
</linearGradient>
<linearGradient id="paint3_linear" x1="39.7794" y1="17.6963" x2="39.7794" y2="39.9999" gradientUnits="userSpaceOnUse">
<stop stop-color="#FFDE00"/>
<stop offset="0.265625" stop-color="#FD6500"/>
</linearGradient>
</defs>
</svg>
