<svg width="80" height="80" viewBox="0 0 80 80" fill="none" xmlns="http://www.w3.org/2000/svg">
<g clip-path="url(#clip0)">
<path d="M58.2758 54.1619H53.5492V56.5073H58.2863C62.9027 56.3414 62.8892 49.612 58.2741 49.4656L57.0775 49.4644C55.5617 49.4355 55.5638 47.1747 57.0788 47.1478H61.768V44.8023H57.0788C55.1492 44.8023 53.5794 46.3742 53.5794 48.3061C53.5794 50.2362 55.1477 51.8081 57.0752 51.8098L58.2717 51.8111C59.79 51.8372 59.7919 54.1305 58.2758 54.1619Z" fill="url(#paint0_linear)"/>
<path d="M51.1338 56.5203V49.5022C51.1338 46.9156 49.0294 44.8112 46.4428 44.8112C43.8563 44.8112 41.7519 46.9156 41.7519 49.5022V56.5203H44.0974V54.1831H48.7883V56.5203H51.1338ZM44.0974 51.8375V49.502C44.0974 48.2087 45.1495 47.1566 46.4428 47.1566C47.7361 47.1566 48.7883 48.2087 48.7883 49.502V51.8375H44.0974Z" fill="url(#paint1_linear)"/>
<path d="M39.4064 47.1566V44.8111H32.3683V56.5286H39.4064V54.1831H34.7138V51.8427H37.0609V49.4972H34.7138V47.1566H39.4064Z" fill="url(#paint2_linear)"/>
<path d="M70.2105 56.5203V49.8872L74.0244 44.8023H71.0925L69.0378 47.5417L66.9834 44.8023H64.0516L67.865 49.8872V56.5203H70.2105Z" fill="url(#paint3_linear)"/>
<path d="M24.3389 13.9079L25.2878 7.14933L27.61 7.47537L26.6611 14.234L24.3389 13.9079Z" fill="url(#paint4_linear)"/>
<path d="M19.5513 6.85765H21.8967V13.6845H19.5513V6.85765Z" fill="url(#paint5_linear)"/>
<path d="M22.0718 28.2576L23.7301 26.5994L25.3883 28.2576L23.7301 29.9159L22.0718 28.2576Z" fill="url(#paint6_linear)"/>
<path d="M79.2795 44.7087V40.1302H47.987C50.8009 35.9111 52.3295 30.9128 52.3295 25.8045C52.3295 11.5758 40.7536 0 26.5249 0C12.2963 0 0.720474 11.5758 0.720474 25.8045C0.720474 33.1263 3.84891 40.1308 9.30376 45.022L10.8695 43.2758C5.91032 38.8288 3.06594 32.4606 3.06594 25.8045C3.06594 12.8692 13.5895 2.34547 26.525 2.34547C39.4605 2.34547 49.9841 12.8691 49.9841 25.8045C49.9841 30.9862 48.2545 36.0434 45.1014 40.1302H33.4244L43.9534 29.6011L34.0022 19.65L38.1484 15.5037C41.3342 12.1077 36.5558 7.34172 33.173 10.5283L20.7414 22.9598C20.4889 20.5677 19.4347 18.3508 17.7099 16.6259C16.0202 14.5352 13.2883 13.9166 11.2347 15.8814L9.09626 18.0198L12.8056 21.7292C13.4591 22.3827 13.8189 23.2514 13.8189 24.1755V29.3202C13.8189 29.3202 25.2713 40.7467 25.4677 40.8981V49.2395C20.853 49.0364 16.4669 47.5044 12.7238 44.7767L11.3424 46.6722C15.4894 49.6944 20.3528 51.3831 25.4675 51.5878V58.8613H4.22376V80H35.888V77.6545H6.56922V61.2066L67.552 61.2097V77.6545H42.922V80H69.8977V61.2097H79.2797V47.0542H76.9342V58.8642H27.8131V42.4756H76.9341V44.7087H79.2795ZM16.1645 28.3484C16.1174 22.6414 16.8592 22.128 12.4134 18.0198C13.1967 17.0698 14.2944 16.6117 15.307 17.54L16.0516 18.2845C17.7305 19.9455 18.5559 22.2244 18.4553 24.5731L20.4503 26.5683L34.8319 12.1869C35.9395 11.1141 37.5627 12.7388 36.4903 13.8453L30.6855 19.6502L28.1977 22.138L29.8561 23.7964L32.3438 21.3084L34.0024 22.967L31.5145 25.4548L33.173 27.1133L35.6608 24.6255L37.3194 26.2841L34.8316 28.7719L36.49 30.4303L38.9778 27.9425L40.6364 29.6011L31.4934 38.7441C30.8345 39.403 29.9586 39.7658 29.0267 39.7658C28.095 39.7658 27.2191 39.4028 26.5602 38.7441L16.1645 28.3484Z" fill="url(#paint7_linear)"/>
<path d="M38.1628 77.6545H40.5083V80H38.1628V77.6545Z" fill="url(#paint8_linear)"/>
<path d="M51.2305 72.8972H46.5039V75.2427H51.2409C55.8572 75.0767 55.8438 68.3472 51.2284 68.2009L50.0324 68.1998C48.5164 68.1709 48.5184 65.91 50.0334 65.8831H54.7225V63.5377H50.0334C48.1039 63.5377 46.5341 65.1095 46.5341 67.0414C46.5341 68.9714 48.1023 70.5433 50.03 70.5453L51.2263 70.5464C52.7444 70.5725 52.7466 72.8658 51.2305 72.8972Z" fill="url(#paint9_linear)"/>
<path d="M44.1636 63.5633H41.8181V70.5816C41.8181 71.8748 40.7659 72.927 39.4727 72.927C38.1794 72.927 37.1272 71.8748 37.1272 70.5816V63.5633H34.7817V70.5816C34.7817 73.1681 36.8861 75.2725 39.4727 75.2725C42.0592 75.2725 44.1636 73.1681 44.1636 70.5816V63.5633Z" fill="url(#paint10_linear)"/>
<path d="M64.102 65.8877V63.5422H57.0638V75.2595H64.102V72.9141H59.4094V70.5736H61.7566V68.2281H59.4094V65.8877H64.102Z" fill="url(#paint11_linear)"/>
<path d="M15.9512 75.267V65.8745H19.4695V63.5291H10.0875V65.8745H13.6058V75.267H15.9512Z" fill="url(#paint12_linear)"/>
<path d="M20.6422 68.2203V70.5814C20.6422 73.168 22.7466 75.2723 25.3331 75.2723C27.9197 75.2723 30.0241 73.168 30.0241 70.5814V68.2203C30.0241 65.6337 27.9197 63.5294 25.3331 63.5294C22.7466 63.5294 20.6422 65.6337 20.6422 68.2203ZM27.6788 68.2203V70.5814C27.6788 71.8747 26.6266 72.9269 25.3333 72.9269C24.04 72.9269 22.9878 71.8747 22.9878 70.5814V68.2203C22.9878 66.927 24.04 65.8748 25.3333 65.8748C26.6266 65.8748 27.6788 66.927 27.6788 68.2203Z" fill="url(#paint13_linear)"/>
<path d="M8.98001 32.4092C8.72548 31.7347 8.49376 30.9881 8.32782 30.307L6.04907 30.8623C6.23688 31.633 6.49845 32.4764 6.78548 33.2373L8.98001 32.4092Z" fill="url(#paint14_linear)"/>
<path d="M5.43781 25.9606C5.45437 26.932 5.50687 27.7184 5.60312 28.4355L7.92765 28.1233C7.84374 27.4988 7.79781 26.7988 7.78296 25.9208L5.43781 25.9606Z" fill="url(#paint15_linear)"/>
</g>
<defs>
<linearGradient id="paint0_linear" x1="57.6586" y1="44.8023" x2="57.6586" y2="56.5073" gradientUnits="userSpaceOnUse">
<stop stop-color="#FFC700"/>
<stop offset="0.354167" stop-color="#FD6500"/>
</linearGradient>
<linearGradient id="paint1_linear" x1="46.4428" y1="44.8112" x2="46.4428" y2="56.5203" gradientUnits="userSpaceOnUse">
<stop stop-color="#FFC700"/>
<stop offset="0.354167" stop-color="#FD6500"/>
</linearGradient>
<linearGradient id="paint2_linear" x1="35.8873" y1="44.8111" x2="35.8873" y2="56.5286" gradientUnits="userSpaceOnUse">
<stop stop-color="#FFC700"/>
<stop offset="0.354167" stop-color="#FD6500"/>
</linearGradient>
<linearGradient id="paint3_linear" x1="69.038" y1="44.8023" x2="69.038" y2="56.5203" gradientUnits="userSpaceOnUse">
<stop stop-color="#FFC700"/>
<stop offset="0.354167" stop-color="#FD6500"/>
</linearGradient>
<linearGradient id="paint4_linear" x1="24.8134" y1="10.5286" x2="27.1355" y2="10.8547" gradientUnits="userSpaceOnUse">
<stop stop-color="#FFC700"/>
<stop offset="0.354167" stop-color="#FD6500"/>
</linearGradient>
<linearGradient id="paint5_linear" x1="20.724" y1="6.85765" x2="20.724" y2="13.6845" gradientUnits="userSpaceOnUse">
<stop stop-color="#FFC700"/>
<stop offset="0.354167" stop-color="#FD6500"/>
</linearGradient>
<linearGradient id="paint6_linear" x1="22.9009" y1="27.4285" x2="24.5592" y2="29.0867" gradientUnits="userSpaceOnUse">
<stop stop-color="#FFC700"/>
<stop offset="0.354167" stop-color="#FD6500"/>
</linearGradient>
<linearGradient id="paint7_linear" x1="40.0001" y1="0" x2="40.0001" y2="80" gradientUnits="userSpaceOnUse">
<stop stop-color="#FFC700"/>
<stop offset="0.354167" stop-color="#FD6500"/>
</linearGradient>
<linearGradient id="paint8_linear" x1="39.3356" y1="77.6545" x2="39.3356" y2="80" gradientUnits="userSpaceOnUse">
<stop stop-color="#FFC700"/>
<stop offset="0.354167" stop-color="#FD6500"/>
</linearGradient>
<linearGradient id="paint9_linear" x1="50.6132" y1="63.5377" x2="50.6132" y2="75.2427" gradientUnits="userSpaceOnUse">
<stop stop-color="#FFC700"/>
<stop offset="0.354167" stop-color="#FD6500"/>
</linearGradient>
<linearGradient id="paint10_linear" x1="39.4727" y1="63.5633" x2="39.4727" y2="75.2725" gradientUnits="userSpaceOnUse">
<stop stop-color="#FFC700"/>
<stop offset="0.354167" stop-color="#FD6500"/>
</linearGradient>
<linearGradient id="paint11_linear" x1="60.5829" y1="63.5422" x2="60.5829" y2="75.2595" gradientUnits="userSpaceOnUse">
<stop stop-color="#FFC700"/>
<stop offset="0.354167" stop-color="#FD6500"/>
</linearGradient>
<linearGradient id="paint12_linear" x1="14.7785" y1="63.5291" x2="14.7785" y2="75.267" gradientUnits="userSpaceOnUse">
<stop stop-color="#FFC700"/>
<stop offset="0.354167" stop-color="#FD6500"/>
</linearGradient>
<linearGradient id="paint13_linear" x1="25.3331" y1="63.5294" x2="25.3331" y2="75.2723" gradientUnits="userSpaceOnUse">
<stop stop-color="#FFC700"/>
<stop offset="0.354167" stop-color="#FD6500"/>
</linearGradient>
<linearGradient id="paint14_linear" x1="7.51454" y1="30.307" x2="7.51454" y2="33.2373" gradientUnits="userSpaceOnUse">
<stop stop-color="#FFC700"/>
<stop offset="0.354167" stop-color="#FD6500"/>
</linearGradient>
<linearGradient id="paint15_linear" x1="6.68273" y1="25.9208" x2="6.68273" y2="28.4355" gradientUnits="userSpaceOnUse">
<stop stop-color="#FFC700"/>
<stop offset="0.354167" stop-color="#FD6500"/>
</linearGradient>
<clipPath id="clip0">
<rect width="80" height="80" fill="white"/>
</clipPath>
</defs>
</svg>
