<svg width="27" height="32" viewBox="0 0 27 32" fill="none" xmlns="http://www.w3.org/2000/svg">
<path d="M23.6711 0.984375H3.30249C1.93953 0.984375 0.830566 2.23056 0.830566 3.76215V26.651C0.830566 28.1826 1.93953 29.4288 3.30249 29.4288H23.6711C25.0341 29.4288 26.1431 28.1826 26.1431 26.651V3.76215C26.1431 2.23056 25.0341 0.984375 23.6711 0.984375ZM25.1543 26.651C25.1543 27.5698 24.4887 28.3177 23.6711 28.3177H3.30249C2.4849 28.3177 1.81934 27.5698 1.81934 26.651V3.76215C1.81934 2.8434 2.4849 2.09549 3.30249 2.09549H23.6711C24.4887 2.09549 25.1543 2.8434 25.1543 3.76215V26.651Z" fill="url(#paint0_linear)"/>
<path d="M22.6824 6.4272H21.1543C20.921 5.03254 19.8105 3.97266 18.4801 3.97266C17.1497 3.97266 16.0392 5.03254 15.8059 6.4272H4.29126C4.01842 6.4272 3.79688 6.67163 3.79688 6.97266C3.79688 7.27368 4.01842 7.51811 4.29126 7.51811H15.8059C16.0392 8.91277 17.1497 9.97266 18.4801 9.97266C19.8105 9.97266 20.921 8.91277 21.1543 7.51811H22.6824C22.9552 7.51811 23.1768 7.27368 23.1768 6.97266C23.1768 6.67163 22.9552 6.4272 22.6824 6.4272ZM18.4801 8.88175C17.5259 8.88175 16.7498 8.02538 16.7498 6.97266C16.7498 5.91993 17.5259 5.06357 18.4801 5.06357C19.4343 5.06357 20.2104 5.91993 20.2104 6.97266C20.2104 8.02538 19.4343 8.88175 18.4801 8.88175Z" fill="url(#paint1_linear)"/>
<path d="M20.517 15.4545H11.2004C10.9725 14.0599 9.88767 13 8.58807 13C7.28847 13 6.20363 14.0599 5.97574 15.4545H4.48295C4.21642 15.4545 4 15.699 4 16C4 16.301 4.21642 16.5455 4.48295 16.5455H5.97574C6.20363 17.9401 7.28847 19 8.58807 19C9.88767 19 10.9725 17.9401 11.2004 16.5455H20.517C20.7836 16.5455 21 16.301 21 16C21 15.699 20.7836 15.4545 20.517 15.4545ZM8.58807 17.9091C7.65597 17.9091 6.89773 17.0527 6.89773 16C6.89773 14.9473 7.65597 14.0909 8.58807 14.0909C9.52017 14.0909 10.2784 14.9473 10.2784 16C10.2784 17.0527 9.52017 17.9091 8.58807 17.9091Z" fill="url(#paint2_linear)"/>
<path d="M22.6824 23.5952H21.1543C20.921 22.2005 19.8105 21.1406 18.4801 21.1406C17.1497 21.1406 16.0392 22.2005 15.8059 23.5952H4.29126C4.01842 23.5952 3.79688 23.8396 3.79688 24.1406C3.79688 24.4416 4.01842 24.6861 4.29126 24.6861H15.8059C16.0392 26.0807 17.1497 27.1406 18.4801 27.1406C19.8105 27.1406 20.921 26.0807 21.1543 24.6861H22.6824C22.9552 24.6861 23.1768 24.4416 23.1768 24.1406C23.1768 23.8396 22.9552 23.5952 22.6824 23.5952ZM18.4801 26.0497C17.5259 26.0497 16.7498 25.1934 16.7498 24.1406C16.7498 23.0879 17.5259 22.2315 18.4801 22.2315C19.4343 22.2315 20.2104 23.0879 20.2104 24.1406C20.2104 25.1934 19.4343 26.0497 18.4801 26.0497Z" fill="url(#paint3_linear)"/>
<path d="M22.6833 16.5703C22.4103 16.5703 22.1888 16.3081 22.1888 15.9844C22.1888 15.6606 22.4098 15.3984 22.683 15.3984H22.6833C22.9564 15.3984 23.1777 15.6606 23.1777 15.9844C23.1777 16.3081 22.9564 16.5703 22.6833 16.5703Z" fill="url(#paint4_linear)"/>
<defs>
<linearGradient id="paint0_linear" x1="13.4868" y1="0.984375" x2="13.4868" y2="29.4288" gradientUnits="userSpaceOnUse">
<stop stop-color="#FFC700"/>
<stop offset="0.197917" stop-color="#FD6500"/>
</linearGradient>
<linearGradient id="paint1_linear" x1="13.4868" y1="3.97266" x2="13.4868" y2="9.97266" gradientUnits="userSpaceOnUse">
<stop stop-color="#FFC700"/>
<stop offset="0.197917" stop-color="#FD6500"/>
</linearGradient>
<linearGradient id="paint2_linear" x1="12.5" y1="13" x2="12.5" y2="19" gradientUnits="userSpaceOnUse">
<stop stop-color="#FFC700"/>
<stop offset="0.197917" stop-color="#FD6500"/>
</linearGradient>
<linearGradient id="paint3_linear" x1="13.4868" y1="21.1406" x2="13.4868" y2="27.1406" gradientUnits="userSpaceOnUse">
<stop stop-color="#FFC700"/>
<stop offset="0.197917" stop-color="#FD6500"/>
</linearGradient>
<linearGradient id="paint4_linear" x1="22.6832" y1="15.3984" x2="22.6832" y2="16.5703" gradientUnits="userSpaceOnUse">
<stop stop-color="#FFC700"/>
<stop offset="0.197917" stop-color="#FD6500"/>
</linearGradient>
</defs>
</svg>
