<svg width="32" height="32" viewBox="0 0 32 32" fill="none" xmlns="http://www.w3.org/2000/svg">
<path d="M1.71144 19.6301C1.816 19.9136 1.98075 20.1687 2.19156 20.3778C2.56537 20.7516 3.07925 20.9836 3.64613 20.9836C4.21131 20.9836 4.72687 20.7516 5.10063 20.3778C5.47444 20.004 5.7065 19.4884 5.7065 18.9233V17.777C5.2725 17.8142 4.89156 17.7203 4.59394 17.5963C4.56731 17.7256 4.53725 17.8514 4.49825 17.9754C4.35119 18.4537 4.10494 18.8896 3.71519 19.2031C3.32013 19.5221 2.79575 19.7063 2.10119 19.6708C1.97719 19.6655 1.84781 19.6514 1.71144 19.6301ZM13.8546 16.5599H17.9754V15.2648H14.8024C14.5419 15.2648 14.3045 15.3729 14.1327 15.5447C13.9608 15.7166 13.8546 15.9522 13.8546 16.2126V16.5599ZM17.9754 17.4971H13.8545V18.9232C13.8545 19.4884 14.0866 20.0039 14.4604 20.3777C14.8341 20.7515 15.3497 20.9836 15.9149 20.9836C16.4818 20.9836 16.9973 20.7515 17.3694 20.3777C17.7432 20.0039 17.9753 19.4884 17.9753 18.9232V17.4971H17.9754ZM30.8201 20.6258C31.0716 20.7587 31.2931 20.9394 31.4756 21.1538C31.8033 21.54 32 22.0378 32 22.5781V25.7388C32 25.9974 31.7909 26.2064 31.5323 26.2064C31.2737 26.2064 31.0628 25.9974 31.0628 25.7388V22.5781C31.0628 22.2664 30.9494 21.9793 30.7616 21.7579C30.5951 21.5612 30.3701 21.4159 30.1132 21.3469C29.6189 21.7083 29.0111 21.9209 28.3557 21.9209C27.6772 21.9209 27.0499 21.6941 26.545 21.3097C26.4494 21.3203 26.3572 21.3469 26.2686 21.3877C26.1481 21.4443 26.0383 21.5312 25.9497 21.6481L23.4321 24.9824C23.3436 25.0993 23.2054 25.1702 23.0584 25.1702H19.8322C19.593 25.1702 19.3769 25.2658 19.221 25.4217C19.0651 25.5794 18.9676 25.7955 18.9676 26.0329C18.9676 26.2721 19.0651 26.4883 19.221 26.6441C19.3769 26.8 19.593 26.8975 19.8322 26.8975H23.6855C23.8397 26.8975 23.9584 26.8816 24.1055 26.8071C24.3783 26.6707 24.6334 26.2562 24.8194 26.0081L26.4866 23.8024C26.6425 23.5952 26.9348 23.5544 27.1421 23.7103C27.3476 23.8662 27.3883 24.1603 27.2324 24.3658L25.6468 26.4669V30.5524H31.0628V27.8612C31.0628 27.6025 31.2736 27.3935 31.5323 27.3935C31.791 27.3935 32 27.6026 32 27.8612V31.0218C32 31.2805 31.7909 31.4895 31.5323 31.4895C21.1768 31.4895 10.8232 31.4895 0.4695 31.4895C0.210875 31.4895 0 31.2804 0 31.0218V27.8612C0 27.6025 0.210875 27.3935 0.4695 27.3935C0.728188 27.3935 0.937187 27.6026 0.937187 27.8612V30.5524H6.355V26.4669L4.76762 24.3658C4.61175 24.1603 4.6525 23.8662 4.85981 23.7103C5.06531 23.5544 5.35938 23.5951 5.51531 23.8024L7.14519 25.9603C7.294 26.1569 7.44288 26.3553 7.59163 26.5538C7.67663 26.6654 7.78119 26.7504 7.89638 26.8071C8.02569 26.8727 8.14619 26.8975 8.28794 26.8975H12.1696C12.4071 26.8975 12.6232 26.8 12.7808 26.6441C12.9367 26.4883 13.0324 26.2721 13.0324 26.0329C13.0324 25.7955 12.9367 25.5794 12.7808 25.4217C12.6232 25.2658 12.4071 25.1702 12.1696 25.1702H8.94169C8.79994 25.1702 8.66 25.1046 8.56794 24.9824L6.05037 21.6481C5.90681 21.4585 5.69244 21.3363 5.45512 21.3097C4.95194 21.6924 4.32481 21.9209 3.64625 21.9209C2.99075 21.9209 2.38125 21.7083 1.887 21.3487C1.63544 21.4143 1.41219 21.5578 1.24563 21.7491C1.05425 21.9723 0.937312 22.2611 0.937312 22.5782V25.7388C0.937312 25.9975 0.72825 26.2065 0.469625 26.2065C0.211 26.2065 0.000125 25.9974 0.000125 25.7388V22.5782C0.000125 22.0308 0.203875 21.5259 0.538688 21.1379C0.719438 20.9306 0.937313 20.7552 1.18181 20.6259C0.832813 20.1245 0.648562 19.5328 0.648562 18.9233V16.2127C0.648562 15.6936 0.859375 15.2223 1.20131 14.8804C1.54331 14.5403 2.01275 14.3277 2.53181 14.3277H4.75875C5.27787 14.3277 5.74913 14.5403 6.091 14.8804C6.433 15.2224 6.64381 15.6936 6.64381 16.2127V18.9233C6.64381 19.5239 6.46487 20.0856 6.15831 20.555C6.41169 20.6826 6.626 20.8579 6.79787 21.0848L9.17375 24.2312H11.0499V22.3303C11.0499 21.7917 11.3351 21.3044 11.7975 20.8916C12.1554 20.5728 12.6267 20.2946 13.1476 20.0749C12.9987 19.7188 12.9173 19.3308 12.9173 18.9233V17.0294V16.2126C12.9173 15.6935 13.1299 15.2223 13.4701 14.8804C13.8121 14.5403 14.2833 14.3276 14.8024 14.3276H18.4449C18.7036 14.3276 18.9144 14.5384 18.9144 14.7971V17.0294V18.9233C18.9144 19.3078 18.8401 19.6763 18.7072 20.0164C19.267 20.2361 19.7737 20.5196 20.1564 20.8491C20.6471 21.2708 20.9501 21.7739 20.9501 22.3302V24.2311H22.8263L25.2021 21.0847C25.3776 20.8543 25.5972 20.6772 25.8435 20.5568C25.5352 20.0855 25.3563 19.5239 25.3563 18.9233V16.2126C25.3563 15.6935 25.5689 15.2223 25.9091 14.8804C26.251 14.5403 26.7222 14.3276 27.2413 14.3276H29.4684C29.9874 14.3276 30.4587 14.5402 30.8006 14.8804C31.1407 15.2223 31.3534 15.6936 31.3534 16.2126V18.9233C31.3533 19.5326 31.1673 20.1244 30.8201 20.6258ZM30.2886 19.6301C30.1539 19.6514 30.0228 19.6655 29.8988 19.6708C29.2061 19.7063 28.6816 19.522 28.2866 19.2031C27.895 18.8896 27.6488 18.4538 27.5017 17.9754C27.4644 17.8514 27.4326 17.7256 27.4077 17.5963C27.1084 17.7203 26.7292 17.8141 26.2934 17.777V18.9233C26.2934 19.4884 26.5255 20.004 26.8993 20.3778C27.2731 20.7516 27.7887 20.9836 28.3556 20.9836C28.9207 20.9836 29.4364 20.7516 29.8102 20.3778C30.0193 20.1687 30.184 19.9136 30.2886 19.6301ZM26.2934 16.838C26.9188 16.9266 27.3759 16.5634 27.4574 16.4925C27.5496 16.4146 27.6363 16.3668 27.7621 16.3614C28.0208 16.349 28.2387 16.5474 28.2511 16.8061C28.2671 17.1108 28.3095 17.4191 28.3963 17.7008C28.492 18.0143 28.6426 18.2907 28.8712 18.4749C29.0962 18.6557 29.4134 18.7584 29.8545 18.7371C30.0246 18.7283 30.2106 18.7018 30.4161 18.6556V16.2125C30.4161 15.9521 30.308 15.7164 30.1361 15.5446C29.9643 15.3728 29.7286 15.2646 29.4683 15.2646H27.2412C26.9808 15.2646 26.7451 15.3728 26.5733 15.5446C26.4014 15.7164 26.2934 15.9521 26.2934 16.2125V16.838ZM5.70656 16.838V16.2126C5.70656 15.9521 5.60031 15.7165 5.42844 15.5446C5.25663 15.3728 5.01919 15.2647 4.75875 15.2647H2.53169C2.27306 15.2647 2.03562 15.3728 1.86375 15.5446C1.69194 15.7165 1.58563 15.9521 1.58563 16.2126V18.6557C1.78938 18.7018 1.97537 18.7283 2.1455 18.7372C2.58669 18.7585 2.90381 18.6557 3.12875 18.475C3.35731 18.2908 3.50787 18.0144 3.60538 17.7008C3.69219 17.4191 3.73469 17.1109 3.74887 16.8061C3.76125 16.5474 3.98094 16.3491 4.23781 16.3614C4.35831 16.3668 4.45038 16.4111 4.539 16.489C4.60463 16.5474 5.06881 16.9283 5.70656 16.838ZM13.6491 20.8809C13.16 21.0705 12.7277 21.3114 12.4194 21.5879C12.1519 21.8253 11.9871 22.0804 11.9871 22.3302V24.2311H12.1696C12.6658 24.2311 13.1175 24.4331 13.4435 24.7591C13.7695 25.0851 13.9714 25.5351 13.9714 26.0329C13.9714 26.3465 13.8899 26.6406 13.75 26.8975H18.25C18.1101 26.6406 18.0303 26.3465 18.0303 26.0329C18.0303 25.5351 18.2323 25.0851 18.5583 24.7591C18.8843 24.4331 19.3342 24.2311 19.8321 24.2311H20.0129V22.3302C20.0129 22.0715 19.8357 21.8058 19.5487 21.5595C19.2121 21.2708 18.7443 21.0209 18.2234 20.8314C18.1632 20.904 18.0994 20.9749 18.0339 21.0404C17.49 21.5843 16.7406 21.9209 15.915 21.9209C15.0911 21.9209 14.34 21.5843 13.7979 21.0404C13.7464 20.9889 13.6968 20.9359 13.6491 20.8809ZM3.90656 3.98107C3.64788 3.98107 3.43887 3.77026 3.43887 3.51157C3.43887 3.25288 3.64794 3.04388 3.90656 3.04388H12.5842C12.8429 3.04388 13.0519 3.25294 13.0519 3.51157C13.0519 3.77026 12.8428 3.98107 12.5842 3.98107H3.90656ZM3.90656 8.91338C3.64788 8.91338 3.43887 8.70257 3.43887 8.44388C3.43887 8.18519 3.64794 7.97438 3.90656 7.97438H8.24544C8.50413 7.97438 8.71494 8.18519 8.71494 8.44388C8.71494 8.70257 8.50413 8.91338 8.24544 8.91338H3.90656ZM3.90656 6.44726C3.64788 6.44726 3.43887 6.23638 3.43887 5.97776C3.43887 5.71907 3.64794 5.51007 3.90656 5.51007H12.5842C12.8429 5.51007 13.0519 5.71913 13.0519 5.97776C13.0519 6.23638 12.8428 6.44726 12.5842 6.44726H3.90656ZM13.0643 11.4451C13.1299 11.6276 13.2344 11.7905 13.3673 11.9234C13.6047 12.1626 13.9342 12.3114 14.3009 12.3114H17.0559C17.3146 12.3114 17.5236 12.5204 17.5236 12.7809C17.5236 13.0396 17.3145 13.2486 17.0559 13.2486H14.3009C13.6756 13.2486 13.1121 12.9935 12.7046 12.5824C12.3999 12.276 12.1838 11.8827 12.0916 11.4451H5.556L3.43356 13.5675C3.34856 13.6526 3.23163 13.7057 3.1005 13.7057C2.84181 13.7057 2.631 13.4966 2.631 13.238V11.4061C2.03569 11.3069 1.50237 11.0217 1.09319 10.6106C0.577625 10.0968 0.25875 9.38638 0.25875 8.60332V3.35219C0.25875 2.57088 0.577687 1.86044 1.09319 1.34494C1.60694 0.831132 2.31738 0.510445 3.1005 0.510445H13.3904C14.1734 0.510445 14.8839 0.831132 15.3977 1.34494C15.9132 1.86044 16.2321 2.57088 16.2321 3.35219V4.22032H24.1941C24.8159 4.22032 25.3794 4.47369 25.7886 4.88294C26.1979 5.29219 26.4513 5.85557 26.4513 6.47744V10.9916C26.4513 11.6135 26.1979 12.1769 25.7886 12.5861C25.4856 12.8891 25.0959 13.107 24.6619 13.1992V15.0417C24.6619 15.1604 24.6176 15.2808 24.5254 15.373C24.3429 15.5554 24.0453 15.5554 23.8627 15.373L21.7386 13.2488H19.1785C18.9198 13.2488 18.709 13.0397 18.709 12.7811C18.709 12.5206 18.9198 12.3116 19.1785 12.3116H21.9334C22.0646 12.3116 22.1814 12.3648 22.2665 12.4515L23.7246 13.9096V12.781C23.7246 12.5206 23.9354 12.3115 24.1941 12.3115C24.5555 12.3115 24.8868 12.1627 25.126 11.9235C25.3652 11.6844 25.514 11.3548 25.514 10.9916V6.47744C25.514 6.11426 25.3652 5.78476 25.126 5.54557C24.8868 5.30638 24.5555 5.15757 24.1941 5.15757H16.2321V8.60345C16.2321 9.38651 15.9132 10.0969 15.3976 10.6108C14.8838 11.1263 14.1734 11.4452 13.3904 11.4452H13.0643V11.4451ZM5.36106 10.5079H13.3904C13.9148 10.5079 14.3896 10.2935 14.7351 9.94807C15.0805 9.60257 15.2949 9.12601 15.2949 8.60332V3.35219C15.2949 2.82957 15.0805 2.35301 14.7351 2.00751C14.3896 1.66201 13.9148 1.44763 13.3904 1.44763H3.10044C2.576 1.44763 2.10119 1.66201 1.75569 2.00751C1.41025 2.35294 1.19581 2.82951 1.19581 3.35219V8.60338C1.19581 9.12601 1.41025 9.60257 1.75569 9.94813C2.10113 10.2936 2.576 10.5079 3.10044 10.5079C3.35912 10.5079 3.56813 10.7188 3.56813 10.9774V12.106L5.02975 10.6462C5.12194 10.5539 5.24062 10.5079 5.36106 10.5079ZM24.7096 27.8346H7.29225V30.5523H24.7096V27.8346H24.7096Z" fill="url(#paint0_linear)"/>
<defs>
<linearGradient id="paint0_linear" x1="16" y1="0.510445" x2="16" y2="31.4895" gradientUnits="userSpaceOnUse">
<stop stop-color="#FFC700"/>
<stop offset="0.197917" stop-color="#FD6500"/>
</linearGradient>
</defs>
</svg>
