<svg width="32" height="32" viewBox="0 0 32 32" fill="none" xmlns="http://www.w3.org/2000/svg">
<g clip-path="url(#clip0)">
<path d="M25.7744 3.9375H13.2634C12.9182 3.9375 12.6384 4.21738 12.6384 4.5625C12.6384 4.90762 12.9182 5.1875 13.2634 5.1875H25.7744C26.1195 5.1875 26.3994 4.90762 26.3994 4.5625C26.3994 4.21738 26.1195 3.9375 25.7744 3.9375Z" fill="url(#paint0_linear)"/>
<path d="M6.92619 4.12063C6.81 4.00438 6.64875 3.9375 6.48438 3.9375C6.31931 3.9375 6.15875 4.00431 6.0425 4.12063C5.92563 4.23688 5.85938 4.39812 5.85938 4.5625C5.85938 4.72688 5.92563 4.88813 6.0425 5.00431C6.15875 5.12063 6.31931 5.1875 6.48438 5.1875C6.64875 5.1875 6.81 5.12063 6.92619 5.00431C7.04244 4.88813 7.10938 4.72688 7.10938 4.5625C7.10938 4.39812 7.0425 4.23688 6.92619 4.12063Z" fill="url(#paint1_linear)"/>
<path d="M4.62931 4.12063C4.51313 4.00438 4.35188 3.9375 4.1875 3.9375C4.02312 3.9375 3.86188 4.00431 3.74563 4.12063C3.62938 4.23694 3.5625 4.39812 3.5625 4.5625C3.5625 4.72688 3.62931 4.88813 3.74563 5.00431C3.86188 5.12063 4.02312 5.1875 4.1875 5.1875C4.35188 5.1875 4.51313 5.12063 4.62931 5.00431C4.74563 4.88813 4.8125 4.72688 4.8125 4.5625C4.8125 4.39812 4.74563 4.23688 4.62931 4.12063Z" fill="url(#paint2_linear)"/>
<path d="M9.22306 4.12063C9.10688 4.00438 8.94563 3.9375 8.78125 3.9375C8.61619 3.9375 8.455 4.00431 8.33937 4.12063C8.2225 4.23688 8.15625 4.39812 8.15625 4.5625C8.15625 4.72688 8.2225 4.88813 8.33937 5.00431C8.455 5.12063 8.61619 5.1875 8.78125 5.1875C8.94563 5.1875 9.10688 5.12063 9.22306 5.00431C9.33938 4.88813 9.40625 4.72688 9.40625 4.5625C9.40625 4.39812 9.33938 4.23688 9.22306 4.12063Z" fill="url(#paint3_linear)"/>
<path d="M28.875 1.6875H0.625C0.279875 1.6875 0 1.96738 0 2.3125V29.6875C0 30.0326 0.279875 30.3125 0.625 30.3125H23.6875C24.0326 30.3125 24.3125 30.0326 24.3125 29.6875C24.3125 29.3424 24.0326 29.0625 23.6875 29.0625H1.25V7.4375H28.2432C28.2455 7.4375 28.2477 7.43719 28.25 7.43713V20.4375C28.25 20.7826 28.5299 21.0625 28.875 21.0625C29.2201 21.0625 29.5 20.7826 29.5 20.4375V2.3125C29.5 1.96738 29.2201 1.6875 28.875 1.6875ZM28.25 6.18787C28.2477 6.18787 28.2454 6.1875 28.2432 6.1875H1.25V2.9375H28.25V6.18787Z" fill="url(#paint4_linear)"/>
<path d="M26.6031 29.2456C26.4869 29.1294 26.3263 29.0625 26.1613 29.0625C25.9969 29.0625 25.8356 29.1293 25.7194 29.2456C25.6031 29.3619 25.5363 29.5231 25.5363 29.6875C25.5363 29.8519 25.6031 30.0131 25.7194 30.1293C25.8356 30.2456 25.9969 30.3125 26.1613 30.3125C26.3263 30.3125 26.4869 30.2456 26.6031 30.1293C26.7193 30.0131 26.7863 29.8519 26.7863 29.6875C26.7863 29.5231 26.7194 29.3619 26.6031 29.2456Z" fill="url(#paint5_linear)"/>
<path d="M31.3965 25.3358C31.3948 25.3342 31.3932 25.3325 31.3916 25.3309L27.6915 21.711C27.4467 21.4716 27.0548 21.4736 26.8125 21.7158L26.1622 22.3661L25.459 21.6629C26.3634 20.5869 26.9091 19.1998 26.9091 17.6875C26.9091 14.2757 24.1334 11.5 20.7216 11.5C18.5541 11.5 16.6436 12.6205 15.5381 14.3125H6.75C4.88906 14.3125 3.375 15.8266 3.375 17.6875C3.375 19.5484 4.88906 21.0625 6.75 21.0625H15.5381C16.6435 22.7545 18.554 23.875 20.7215 23.875C22.1717 23.875 23.5068 23.3733 24.5628 22.5346L25.2782 23.25L24.7395 23.7887C24.6215 23.9067 24.5556 24.0671 24.5565 24.2341C24.5573 24.401 24.6251 24.5607 24.7444 24.6774L28.4423 28.2952C28.8315 28.683 29.3499 28.8961 29.9037 28.8961C29.9071 28.8961 29.9106 28.8961 29.914 28.8961C30.4706 28.8934 30.9935 28.6756 31.3865 28.2826C31.7795 27.8897 31.9973 27.3668 32 26.8101C32.0027 26.2513 31.7883 25.7277 31.3965 25.3358ZM14.91 19.8125H6.75C5.57825 19.8125 4.625 18.8593 4.625 17.6875C4.625 16.5157 5.57825 15.5625 6.75 15.5625H14.91C14.6668 16.2255 14.534 16.9412 14.534 17.6875C14.534 18.4338 14.6668 19.1495 14.91 19.8125ZM20.7215 22.625C17.999 22.625 15.784 20.4101 15.784 17.6875C15.784 14.9649 17.999 12.75 20.7215 12.75C23.4441 12.75 25.659 14.9649 25.659 17.6875C25.659 20.4101 23.4441 22.625 20.7215 22.625ZM30.5026 27.3988C30.3442 27.5572 30.133 27.645 29.908 27.6461C29.9067 27.6461 29.9052 27.6461 29.9038 27.6461C29.6827 27.6461 29.4768 27.5619 29.3236 27.4086C29.322 27.4071 29.3203 27.4054 29.3187 27.4038L26.0702 24.2257L26.6037 23.6922C26.6038 23.6921 26.604 23.6921 26.6041 23.6919C26.6042 23.6918 26.6043 23.6917 26.6044 23.6916L27.2591 23.0368L30.5145 26.2216C30.6675 26.3756 30.751 26.5823 30.75 26.8041C30.7489 27.0291 30.6611 27.2403 30.5026 27.3988Z" fill="url(#paint6_linear)"/>
<path d="M10.7206 17.2437C10.6037 17.1269 10.4431 17.0606 10.2787 17.0606C10.1137 17.0606 9.9525 17.1275 9.83687 17.2437C9.72 17.36 9.65375 17.5207 9.65375 17.6856C9.65375 17.85 9.72 18.0112 9.83687 18.1275C9.95312 18.2437 10.1137 18.3106 10.2787 18.3106C10.4431 18.3106 10.6037 18.2437 10.7206 18.1275C10.8368 18.0106 10.9037 17.85 10.9037 17.6856C10.9037 17.5212 10.8369 17.36 10.7206 17.2437Z" fill="url(#paint7_linear)"/>
<path d="M8.12931 17.2625C8.01313 17.1463 7.85188 17.08 7.6875 17.08C7.52312 17.08 7.36188 17.1463 7.24563 17.2625C7.12938 17.3793 7.0625 17.5406 7.0625 17.705C7.0625 17.8694 7.12931 18.0306 7.24563 18.1468C7.36188 18.2631 7.52312 18.33 7.6875 18.33C7.85188 18.33 8.01313 18.2631 8.12931 18.1468C8.24556 18.0299 8.3125 17.8694 8.3125 17.705C8.3125 17.5406 8.24563 17.3793 8.12931 17.2625Z" fill="url(#paint8_linear)"/>
<path d="M13.3112 17.2244C13.195 17.1081 13.0344 17.0413 12.8694 17.0413C12.705 17.0413 12.5438 17.1081 12.4275 17.2244C12.3113 17.3407 12.2444 17.5019 12.2444 17.6663C12.2444 17.8306 12.3112 17.9919 12.4275 18.1081C12.5438 18.2243 12.705 18.2913 12.8694 18.2913C13.0338 18.2913 13.195 18.2244 13.3112 18.1081C13.4274 17.9919 13.4944 17.8306 13.4944 17.6663C13.4944 17.5019 13.4275 17.3406 13.3112 17.2244Z" fill="url(#paint9_linear)"/>
<path d="M20.7215 14.5C20.3764 14.5 20.0965 14.7799 20.0965 15.125C20.0965 15.4701 20.3764 15.75 20.7215 15.75C21.7899 15.75 22.659 16.6191 22.659 17.6875C22.659 18.0326 22.9389 18.3125 23.284 18.3125C23.6291 18.3125 23.909 18.0326 23.909 17.6875C23.909 15.9299 22.4791 14.5 20.7215 14.5Z" fill="url(#paint10_linear)"/>
<path d="M12.5313 23.0625H7.68756C7.34244 23.0625 7.06256 23.3424 7.06256 23.6875C7.06256 24.0326 7.34244 24.3125 7.68756 24.3125H12.5313C12.8764 24.3125 13.1563 24.0326 13.1563 23.6875C13.1563 23.3424 12.8764 23.0625 12.5313 23.0625Z" fill="url(#paint11_linear)"/>
<path d="M15.6006 23.2457C15.4844 23.1294 15.3237 23.0626 15.1588 23.0626C14.9944 23.0626 14.8331 23.1294 14.7169 23.2457C14.6006 23.362 14.5338 23.5232 14.5338 23.6876C14.5338 23.8519 14.6006 24.0132 14.7169 24.1294C14.8338 24.2456 14.9944 24.3126 15.1588 24.3126C15.3231 24.3126 15.4844 24.2456 15.6006 24.1294C15.7174 24.0132 15.7838 23.8519 15.7838 23.6876C15.7838 23.5232 15.7174 23.3619 15.6006 23.2457Z" fill="url(#paint12_linear)"/>
</g>
<defs>
<linearGradient id="paint0_linear" x1="19.5189" y1="3.9375" x2="19.5189" y2="5.1875" gradientUnits="userSpaceOnUse">
<stop stop-color="#FFC700"/>
<stop offset="0.197917" stop-color="#FD6500"/>
</linearGradient>
<linearGradient id="paint1_linear" x1="6.48438" y1="3.9375" x2="6.48438" y2="5.1875" gradientUnits="userSpaceOnUse">
<stop stop-color="#FFC700"/>
<stop offset="0.197917" stop-color="#FD6500"/>
</linearGradient>
<linearGradient id="paint2_linear" x1="4.1875" y1="3.9375" x2="4.1875" y2="5.1875" gradientUnits="userSpaceOnUse">
<stop stop-color="#FFC700"/>
<stop offset="0.197917" stop-color="#FD6500"/>
</linearGradient>
<linearGradient id="paint3_linear" x1="8.78125" y1="3.9375" x2="8.78125" y2="5.1875" gradientUnits="userSpaceOnUse">
<stop stop-color="#FFC700"/>
<stop offset="0.197917" stop-color="#FD6500"/>
</linearGradient>
<linearGradient id="paint4_linear" x1="14.75" y1="1.6875" x2="14.75" y2="30.3125" gradientUnits="userSpaceOnUse">
<stop stop-color="#FFC700"/>
<stop offset="0.197917" stop-color="#FD6500"/>
</linearGradient>
<linearGradient id="paint5_linear" x1="26.1613" y1="29.0625" x2="26.1613" y2="30.3125" gradientUnits="userSpaceOnUse">
<stop stop-color="#FFC700"/>
<stop offset="0.197917" stop-color="#FD6500"/>
</linearGradient>
<linearGradient id="paint6_linear" x1="17.6875" y1="11.5" x2="17.6875" y2="28.8961" gradientUnits="userSpaceOnUse">
<stop stop-color="#FFC700"/>
<stop offset="0.197917" stop-color="#FD6500"/>
</linearGradient>
<linearGradient id="paint7_linear" x1="10.2787" y1="17.0606" x2="10.2787" y2="18.3106" gradientUnits="userSpaceOnUse">
<stop stop-color="#FFC700"/>
<stop offset="0.197917" stop-color="#FD6500"/>
</linearGradient>
<linearGradient id="paint8_linear" x1="7.6875" y1="17.08" x2="7.6875" y2="18.33" gradientUnits="userSpaceOnUse">
<stop stop-color="#FFC700"/>
<stop offset="0.197917" stop-color="#FD6500"/>
</linearGradient>
<linearGradient id="paint9_linear" x1="12.8694" y1="17.0413" x2="12.8694" y2="18.2913" gradientUnits="userSpaceOnUse">
<stop stop-color="#FFC700"/>
<stop offset="0.197917" stop-color="#FD6500"/>
</linearGradient>
<linearGradient id="paint10_linear" x1="22.0027" y1="14.5" x2="22.0027" y2="18.3125" gradientUnits="userSpaceOnUse">
<stop stop-color="#FFC700"/>
<stop offset="0.197917" stop-color="#FD6500"/>
</linearGradient>
<linearGradient id="paint11_linear" x1="10.1094" y1="23.0625" x2="10.1094" y2="24.3125" gradientUnits="userSpaceOnUse">
<stop stop-color="#FFC700"/>
<stop offset="0.197917" stop-color="#FD6500"/>
</linearGradient>
<linearGradient id="paint12_linear" x1="15.1588" y1="23.0626" x2="15.1588" y2="24.3126" gradientUnits="userSpaceOnUse">
<stop stop-color="#FFC700"/>
<stop offset="0.197917" stop-color="#FD6500"/>
</linearGradient>
<clipPath id="clip0">
<rect width="32" height="32" fill="white"/>
</clipPath>
</defs>
</svg>
