<svg width="32" height="32" viewBox="0 0 32 32" fill="none" xmlns="http://www.w3.org/2000/svg">
<path d="M20.9347 8.61275H5.61034C5.35034 8.61275 5.13959 8.8235 5.13959 9.0835C5.13959 9.3435 5.35034 9.55425 5.61034 9.55425H20.9347C21.1947 9.55425 21.4055 9.3435 21.4055 9.0835C21.4055 8.8235 21.1947 8.61275 20.9347 8.61275Z" fill="url(#paint0_linear)"/>
<path d="M5.61034 6.28881H13.2725C13.5325 6.28881 13.7432 6.07806 13.7432 5.81806C13.7432 5.55806 13.5325 5.34731 13.2725 5.34731H5.61034C5.35034 5.34731 5.13959 5.55806 5.13959 5.81806C5.13959 6.07812 5.35034 6.28881 5.61034 6.28881Z" fill="url(#paint1_linear)"/>
<path d="M20.9347 11.506H5.61034C5.35034 11.506 5.13959 11.7168 5.13959 11.9768C5.13959 12.2368 5.35034 12.4475 5.61034 12.4475H20.9347C21.1947 12.4475 21.4055 12.2368 21.4055 11.9768C21.4054 11.7168 21.1947 11.506 20.9347 11.506Z" fill="url(#paint2_linear)"/>
<path d="M9.10115 28.7292H4.19697C3.39203 28.7292 2.73709 28.0744 2.73709 27.2694V2.40131C2.73709 1.59638 3.39203 0.941437 4.19697 0.941437H18.3255C18.3711 0.941437 18.416 0.945625 18.4605 0.951625V3.8875C18.4605 5.21163 19.5377 6.28881 20.8618 6.28881H23.7976C23.8037 6.33331 23.8078 6.37825 23.8078 6.42387V14.4402C23.8078 14.7002 24.0185 14.9109 24.2785 14.9109C24.5385 14.9109 24.7493 14.7002 24.7493 14.4402V6.42394C24.7493 5.90756 24.5482 5.42206 24.183 5.05688L19.6924 0.56625C19.3273 0.201125 18.8418 0 18.3255 0H4.19697C2.87284 0 1.79565 1.07725 1.79565 2.40131V27.2694C1.79565 28.5935 2.8729 29.6707 4.19697 29.6707H9.10115C9.36115 29.6707 9.5719 29.4599 9.5719 29.1999C9.5719 28.9399 9.36115 28.7292 9.10115 28.7292ZM23.1421 5.34737H20.8618C20.0569 5.34737 19.402 4.69244 19.402 3.8875V1.60725L23.1421 5.34737Z" fill="url(#paint3_linear)"/>
<path d="M30.0599 23.0456L26.0713 16.3131C25.7806 15.8222 25.1479 15.6599 24.6568 15.9509L23.6866 16.5257C22.9336 16.9718 22.6153 17.8746 22.8738 18.6747C22.5469 18.7931 22.1886 18.7912 21.8586 18.6637C21.0926 18.4227 20.5102 17.9379 19.5484 18.1811C17.9153 18.5969 17.9649 18.5761 17.8171 18.6268C16.8609 18.0823 16.2861 17.9203 15.2709 18.313L14.3661 18.6628C13.9471 18.8247 13.4855 18.7863 13.0984 18.5569L12.8514 18.4114C12.9719 17.6894 12.6518 16.9274 11.9738 16.5258C11.9738 16.5258 11.9738 16.5258 11.9737 16.5257L11.0036 15.951C10.5138 15.6609 9.87932 15.8233 9.58919 16.3131L5.60044 23.0456C5.30976 23.5364 5.47151 24.1692 5.96251 24.46L6.93263 25.0347C7.22619 25.2087 7.54882 25.2914 7.86757 25.2914C8.22301 25.2914 8.57344 25.1884 8.87307 24.9944L9.07526 25.1137L8.64838 25.7083C8.13969 26.4169 8.30132 27.4022 9.01007 27.911C9.33782 28.1462 9.74957 28.2537 10.1754 28.1868C10.2429 28.5818 10.4593 28.9514 10.8097 29.203C11.1388 29.4392 11.5486 29.5468 11.9752 29.4796C12.0429 29.8743 12.2592 30.2436 12.6094 30.495C13.08 30.8328 13.6651 30.8719 14.1527 30.6636C14.2594 30.9408 14.4448 31.191 14.7035 31.3768C15.379 31.8616 16.3095 31.7351 16.8344 31.107L17.9688 31.779C18.7189 32.2236 19.6869 31.9765 20.1317 31.2254C20.2454 31.0334 20.316 30.8242 20.3418 30.6091L20.3444 30.6107C21.0934 31.0543 22.0636 30.8059 22.5073 30.0571C22.6358 29.8401 22.7063 29.6048 22.7234 29.369C23.3836 29.535 24.1032 29.2577 24.4676 28.6427C24.5871 28.4409 24.6564 28.223 24.6793 28.0037C25.3869 28.2814 26.2139 28.013 26.6136 27.3385C26.8285 26.9757 26.8893 26.5509 26.7848 26.1424C26.7249 25.9086 26.6149 25.6964 26.4639 25.5173L27.0892 25.1519C27.6181 25.3691 28.2218 25.3343 28.7276 25.0347L29.6976 24.4599C30.1886 24.1693 30.3508 23.5366 30.0599 23.0456ZM7.41251 24.2248L6.44238 23.65C6.39926 23.6244 6.38494 23.5686 6.41044 23.5254L10.3992 16.7927C10.4249 16.7494 10.4809 16.7354 10.5238 16.7609L11.4939 17.3356C11.9249 17.591 12.0598 18.1439 11.8091 18.5671L8.64401 23.9096C8.39138 24.3361 7.83901 24.4774 7.41251 24.2248ZM9.55907 27.1462C9.2732 26.9409 9.20782 26.5433 9.41319 26.2573L10.0406 25.3833C10.2405 25.1049 10.6388 25.0287 10.9295 25.2374C11.2148 25.4422 11.2803 25.8409 11.0755 26.1262L10.448 27.0002C10.2432 27.2856 9.84426 27.3509 9.55907 27.1462ZM11.3588 28.4382C11.0734 28.2334 11.008 27.8346 11.2128 27.5493L11.8403 26.6754C11.8403 26.6754 11.8403 26.6754 11.8403 26.6753C11.8403 26.6753 11.8403 26.6752 11.8403 26.6752L12.5328 25.7108C12.632 25.5726 12.7791 25.4812 12.9469 25.4537C12.9818 25.4479 13.0168 25.4451 13.0514 25.4451C13.1836 25.4451 13.3121 25.4862 13.4216 25.5648C13.5598 25.6641 13.6511 25.8111 13.6786 25.9789C13.7062 26.1469 13.6668 26.3154 13.5675 26.4536L12.2476 28.2922C12.0424 28.5782 11.6448 28.6436 11.3588 28.4382ZM13.1584 29.7302C12.8733 29.5254 12.8078 29.1269 13.0122 28.8417C13.0123 28.8416 13.0124 28.8414 13.0124 28.8413L14.3324 27.0028C14.5371 26.7175 14.9361 26.652 15.2213 26.8568C15.5066 27.0616 15.572 27.4603 15.3672 27.7456L14.7808 28.5626C14.7808 28.5626 14.7808 28.5626 14.7807 28.5626L14.0473 29.5842C13.8424 29.8696 13.4438 29.9351 13.1584 29.7302ZM15.2526 30.6119C14.9674 30.4072 14.9019 30.0089 15.1062 29.7236L15.5455 29.1117C15.7503 28.8263 16.1492 28.7611 16.4344 28.9657C16.7196 29.1705 16.7851 29.5693 16.5803 29.8546L16.1414 30.4659C15.9366 30.7513 15.5378 30.8168 15.2526 30.6119ZM25.8038 26.8587C25.6246 27.161 25.2331 27.2613 24.9308 27.0822C24.4188 26.7789 21.116 24.8222 20.7639 24.6136C20.5401 24.4811 20.2514 24.5549 20.1189 24.7786C19.9864 25.0022 20.0603 25.291 20.2839 25.4235L23.4341 27.2898L23.4342 27.2899C23.7366 27.469 23.8375 27.8593 23.6577 28.1629C23.4785 28.4654 23.0868 28.5654 22.7846 28.3865C21.6194 27.6962 20.6734 27.1358 19.6327 26.5192C19.4089 26.3867 19.1203 26.4605 18.9878 26.6842C18.8553 26.9079 18.9291 27.1966 19.1528 27.3291L21.4739 28.7043L21.4744 28.7046C21.777 28.8843 21.8769 29.2744 21.6974 29.5774C21.5183 29.8798 21.1267 29.98 20.8243 29.8009L19.5786 29.0629C19.5784 29.0629 19.5783 29.0628 19.5781 29.0627C19.578 29.0626 19.5779 29.0626 19.5778 29.0625L18.6687 28.5239C18.4449 28.3913 18.1563 28.4651 18.0238 28.6889C17.8913 28.9126 17.9651 29.2013 18.1888 29.3338L19.098 29.8725C19.0981 29.8726 19.0983 29.8727 19.0984 29.8727C19.4008 30.0519 19.5017 30.4421 19.3219 30.7458C19.1427 31.0482 18.7511 31.1484 18.4487 30.9692L17.388 30.3409C17.8427 29.6393 17.6698 28.6938 16.9834 28.2012C16.7819 28.0566 16.5574 27.9665 16.3279 27.9278C16.5714 27.2768 16.3614 26.5166 15.7703 26.0923C15.4203 25.8409 15.0012 25.7541 14.6057 25.8161C14.5353 25.4045 14.3103 25.044 13.9707 24.8003C13.3321 24.342 12.4642 24.4301 11.9281 24.9724C11.8192 24.7811 11.6688 24.6094 11.4786 24.4729C10.9479 24.092 10.2589 24.0884 9.73351 24.4093L9.51782 24.2819L12.4784 19.2845L12.6194 19.3676C13.2419 19.7364 14.0015 19.8133 14.7055 19.541L15.6104 19.1912C16.1282 18.9911 16.4138 18.978 16.9259 19.2197C16.5908 19.5962 16.3919 20.0905 16.3919 20.6232V22.7104C16.3919 23.2648 16.8426 23.7161 17.3965 23.7165H17.3979C17.9535 23.7165 18.476 23.5002 18.8691 23.1074C19.0982 22.8784 19.2673 22.6054 19.3687 22.3074C19.9765 22.6673 24.9982 25.641 25.5804 25.9859C25.7268 26.0727 25.8307 26.2113 25.8729 26.3761C25.9151 26.5408 25.8905 26.7123 25.8038 26.8587ZM29.218 23.65L28.2478 24.2248C27.8213 24.4773 27.2689 24.3359 27.0164 23.9096L25.5329 21.4056C25.4004 21.1819 25.1115 21.1081 24.888 21.2404C24.6643 21.3729 24.5904 21.6617 24.7229 21.8854L26.2064 24.3895C26.2343 24.4366 26.2646 24.4814 26.296 24.5251L25.8836 24.7661C25.8002 24.8154 25.72 24.8698 25.6433 24.9289L19.2481 21.1417C18.9348 20.9562 18.5376 21.1823 18.5376 21.5467C18.5326 21.5748 18.5862 22.0587 18.2035 22.4412C17.9883 22.6563 17.7021 22.7748 17.3978 22.7748C17.3976 22.7748 17.3973 22.7748 17.3971 22.7748C17.3619 22.7748 17.3333 22.7458 17.3333 22.7102V20.623C17.3333 20.0777 17.7084 19.6178 18.2157 19.4893L19.7792 19.0936C20.3465 18.9502 20.6672 19.2532 21.5166 19.5407C22.1063 19.7688 22.7475 19.7548 23.3166 19.5117L23.6008 19.9913C23.7333 20.2151 24.0221 20.2889 24.2457 20.1564C24.4694 20.0239 24.5433 19.7352 24.4108 19.5115L23.8512 18.5669C23.598 18.1396 23.7391 17.5888 24.1664 17.3355L25.1365 16.7608C25.1789 16.7356 25.2349 16.7485 25.2612 16.7927L29.2498 23.5253C29.2756 23.5687 29.2614 23.6243 29.218 23.65Z" fill="url(#paint4_linear)"/>
<defs>
<linearGradient id="paint0_linear" x1="13.2725" y1="8.61275" x2="13.2725" y2="9.55425" gradientUnits="userSpaceOnUse">
<stop stop-color="#FFC700"/>
<stop offset="0.197917" stop-color="#FD6500"/>
</linearGradient>
<linearGradient id="paint1_linear" x1="9.4414" y1="5.34731" x2="9.4414" y2="6.28881" gradientUnits="userSpaceOnUse">
<stop stop-color="#FFC700"/>
<stop offset="0.197917" stop-color="#FD6500"/>
</linearGradient>
<linearGradient id="paint2_linear" x1="13.2725" y1="11.506" x2="13.2725" y2="12.4475" gradientUnits="userSpaceOnUse">
<stop stop-color="#FFC700"/>
<stop offset="0.197917" stop-color="#FD6500"/>
</linearGradient>
<linearGradient id="paint3_linear" x1="13.2725" y1="0" x2="13.2725" y2="29.6707" gradientUnits="userSpaceOnUse">
<stop stop-color="#FFC700"/>
<stop offset="0.197917" stop-color="#FD6500"/>
</linearGradient>
<linearGradient id="paint4_linear" x1="17.8302" y1="15.8064" x2="17.8302" y2="32" gradientUnits="userSpaceOnUse">
<stop stop-color="#FFC700"/>
<stop offset="0.197917" stop-color="#FD6500"/>
</linearGradient>
</defs>
</svg>
