<svg width="121" height="120" viewBox="0 0 121 120" fill="none" xmlns="http://www.w3.org/2000/svg">
<path d="M22.0154 120C30.5485 120.006 38.3132 115.073 41.932 107.346C45.5518 99.6203 44.3716 90.4967 38.9058 83.9454L43.4217 79.4285L40.5946 76.6014L36.0787 81.1183C28.6205 74.8989 17.9661 74.3073 9.86558 79.6628C1.76502 85.0182 -1.86451 95.0526 0.936221 104.351C3.73696 113.649 12.3051 120.009 22.0154 120ZM22.0154 80.0142C31.9532 80.0142 40.0089 88.0708 40.0089 98.0076C40.0089 107.945 31.9532 116.001 22.0154 116.001C12.0786 116.001 4.02201 107.945 4.02201 98.0076C4.03372 88.0747 12.0825 80.0259 22.0154 80.0142Z" fill="black"/>
<path d="M22.0154 44.0273C27.1571 44.0302 32.1358 42.2243 36.0787 38.9257L40.5946 43.4416L43.4217 40.6145L38.9058 36.0986C45.4883 28.1796 45.6914 16.7521 39.3929 8.60468C33.0944 0.457262 21.9842 -2.22535 12.6624 2.15098C3.34061 6.52731 -1.69271 16.7892 0.551589 26.8392C2.79686 36.8893 11.7184 44.0332 22.0154 44.0273ZM22.0154 4.04189C31.9532 4.04189 40.0089 12.0985 40.0089 22.0353C40.0089 31.9731 31.9532 40.0288 22.0154 40.0288C12.0786 40.0288 4.022 31.9731 4.022 22.0353C4.03372 12.1024 12.0825 4.05361 22.0154 4.04189Z" fill="black"/>
<path d="M81.9936 60.0215C82.0014 48.1245 72.5458 38.378 60.6537 38.0256C48.7615 37.6732 38.7447 46.8427 38.0477 58.7192C37.3507 70.5967 46.2254 80.8742 58.0765 81.9158C58.714 81.9783 59.3563 82.0135 60.0016 82.0135C60.6478 82.0135 61.2892 81.9783 61.9276 81.9158C73.2731 80.9094 81.9779 71.4128 81.9936 60.0215ZM69.9979 74.4811C67.5642 76.4423 64.6073 77.6449 61.4952 77.9398C61.0012 77.9817 60.5063 78.0149 60.0016 78.0149C59.4979 78.0149 59.0019 77.9817 58.509 77.9398C55.3968 77.6449 52.4399 76.4423 50.0052 74.4811V74.3483C51.2372 70.8183 53.2482 67.6095 55.8898 64.9621L57.1755 63.6764C57.9554 62.8954 57.9554 61.6303 57.1755 60.8493C55.6135 59.2884 55.6126 56.7561 57.1745 55.1941C58.7364 53.6332 61.2677 53.6332 62.8296 55.1941C64.3906 56.7561 64.3906 59.2884 62.8287 60.8493C62.0487 61.6303 62.0487 62.8954 62.8287 63.6764L64.1143 64.9621C66.755 67.6095 68.766 70.8183 69.9979 74.3483V74.4811ZM66.9414 62.135L66.8936 62.0852C68.8714 58.7261 68.1383 54.4308 65.1599 51.916C62.1805 49.4023 57.8237 49.4023 54.8443 51.916C51.8649 54.4308 51.1327 58.7261 53.1105 62.0852L53.0627 62.135C50.2659 64.9591 48.0811 68.331 46.6471 72.0376C40.1465 64.8381 40.5224 53.7826 47.4964 47.0418C54.4714 40.3002 65.5328 40.3002 72.5068 47.0418C79.4818 53.7826 79.8576 64.8381 73.3571 72.0376C71.922 68.331 69.7383 64.9591 66.9414 62.135Z" fill="black"/>
<path d="M22.0154 32.0317C27.5369 32.0317 32.0118 27.5567 32.0118 22.0353C32.0118 16.5149 27.5369 12.039 22.0154 12.039C16.495 12.039 12.0191 16.5149 12.0191 22.0353C12.0259 27.5538 16.4979 32.0258 22.0154 32.0317ZM22.0154 16.0375C25.3287 16.0375 28.0132 18.7231 28.0132 22.0353C28.0132 25.3486 25.3287 28.0331 22.0154 28.0331C18.7032 28.0331 16.0176 25.3486 16.0176 22.0353C16.0176 18.7231 18.7032 16.0375 22.0154 16.0375Z" fill="black"/>
<path d="M14.0183 108.004H30.0125C31.1166 108.004 32.0118 107.109 32.0118 106.005V90.0105C32.0118 88.9064 31.1166 88.0113 30.0125 88.0113H14.0183C12.9143 88.0113 12.0191 88.9064 12.0191 90.0105V106.005C12.0191 107.109 12.9143 108.004 14.0183 108.004ZM16.0176 92.0098H28.0132V104.005H16.0176V92.0098Z" fill="black"/>
<path d="M99.7234 13.0386C99.3388 12.4558 98.6867 12.1053 97.9877 12.1053C97.2897 12.1053 96.6376 12.4558 96.253 13.0386L88.2559 27.0335C87.8986 27.6534 87.8986 28.4158 88.2569 29.0347C88.6152 29.6536 89.276 30.0343 89.9906 30.0324H105.985C106.7 30.0343 107.361 29.6536 107.72 29.0347C108.078 28.4158 108.078 27.6534 107.72 27.0335L99.7234 13.0386ZM93.4357 26.0339L97.9877 18.069L102.541 26.0339H93.4357Z" fill="black"/>
<path d="M97.9877 120C107.699 120.009 116.267 113.649 119.068 104.351C121.869 95.0526 118.239 85.0182 110.139 79.6628C102.037 74.3073 91.3837 74.8989 83.9255 81.1183L79.4086 76.6014L76.5815 79.4285L81.0984 83.9454C75.6316 90.4967 74.4524 99.6203 78.0712 107.346C81.6909 115.073 89.4557 120.006 97.9877 120ZM97.9877 80.0142C107.925 80.0142 115.981 88.0708 115.981 98.0076C115.981 107.945 107.925 116.001 97.9877 116.001C88.0509 116.001 79.9943 107.945 79.9943 98.0076C80.006 88.0747 88.0548 80.0259 97.9877 80.0142Z" fill="black"/>
<path d="M96.7889 109.604C97.4996 110.137 98.4768 110.137 99.1875 109.604L107.185 103.606C107.688 103.228 107.984 102.636 107.984 102.006V94.0091C107.984 93.3804 107.688 92.7878 107.185 92.4101L99.1875 86.4122C98.4768 85.8792 97.4996 85.8792 96.7889 86.4122L88.7919 92.4101C88.2881 92.7878 87.9914 93.3804 87.9914 94.0091V102.006C87.9914 102.636 88.2881 103.228 88.7919 103.606L96.7889 109.604ZM91.9899 95.0087L97.9877 90.5104L103.986 95.0087V101.007L97.9877 105.505L91.9899 101.007V95.0087Z" fill="black"/>
<path d="M16.0176 50.0251H20.0162V54.0237H16.0176V50.0251Z" fill="black"/>
<path d="M16.0176 58.0222H20.0162V62.0208H16.0176V58.0222Z" fill="black"/>
<path d="M16.0176 66.0193H20.0162V70.0178H16.0176V66.0193Z" fill="black"/>
<path d="M105.985 50.0251H109.983V54.0237H105.985V50.0251Z" fill="black"/>
<path d="M105.985 58.0222H109.983V62.0208H105.985V58.0222Z" fill="black"/>
<path d="M105.985 66.0193H109.983V70.0178H105.985V66.0193Z" fill="black"/>
<path d="M50.0052 10.0397H54.0038V14.0382H50.0052V10.0397Z" fill="black"/>
<path d="M58.0023 10.0397H62.0009V14.0382H58.0023V10.0397Z" fill="black"/>
<path d="M65.9994 10.0397H69.9979V14.0382H65.9994V10.0397Z" fill="black"/>
<path d="M50.0052 106.005H54.0038V110.003H50.0052V106.005Z" fill="black"/>
<path d="M58.0023 106.005H62.0009V110.003H58.0023V106.005Z" fill="black"/>
<path d="M65.9994 106.005H69.9979V110.003H65.9994V106.005Z" fill="black"/>
<path d="M97.9877 0.0433655C90.015 0.0443417 82.6662 4.36113 78.7828 11.3244C74.8995 18.2877 75.0898 26.808 79.2787 33.5917L78.0194 41.7225C77.9306 42.2994 78.0975 42.8861 78.4773 43.3293C78.857 43.7725 79.4115 44.0273 79.9943 44.0273C80.1349 44.0283 80.2754 44.0137 80.4121 43.9834L89.0837 42.1247C91.8835 43.3811 94.9185 44.0293 97.9877 44.0273C110.134 44.0273 119.98 34.1813 119.98 22.0353C119.98 9.89036 110.134 0.0433655 97.9877 0.0433655ZM97.9877 40.0288C95.2865 40.0278 92.6205 39.4128 90.1908 38.2296C89.9203 38.0978 89.6226 38.0295 89.321 38.0295C89.1814 38.0305 89.0408 38.0451 88.9031 38.0734L82.4201 39.4733L83.3515 33.4638C83.4276 32.9679 83.3153 32.4612 83.0352 32.0444C78.4441 25.1836 79.1098 16.0795 84.6498 9.95967C90.1898 3.83983 99.1836 2.27497 106.465 6.16418C113.747 10.0524 117.448 18.397 115.443 26.4048C113.439 34.4127 106.243 40.0298 97.9877 40.0288Z" fill="black"/>
</svg>
